<?xml version="1.0" encoding="UTF-8"?>
<svg id="Layer_2" data-name="Layer 2" xmlns="http://www.w3.org/2000/svg" viewBox="0 0 307.71 95.16">
  <defs>
    <style>
      .cls-1 {
        fill: #1d1d1b;
        stroke-width: 0px;
      }
    </style>
  </defs>
  <g id="Objects">
    <g>
      <path class="cls-1" d="m103.81,42.08h-20.69c-.47,0-.86.38-.86.86s.38.86.86.86h20.69c.47,0,.86-.38.86-.86s-.38-.86-.86-.86Zm0,0h-20.69c-.47,0-.86.38-.86.86s.38.86.86.86h20.69c.47,0,.86-.38.86-.86s-.38-.86-.86-.86Zm0,0h-20.69c-.47,0-.86.38-.86.86s.38.86.86.86h20.69c.47,0,.86-.38.86-.86s-.38-.86-.86-.86Zm0,0h-20.69c-.47,0-.86.38-.86.86s.38.86.86.86h20.69c.47,0,.86-.38.86-.86s-.38-.86-.86-.86Zm0,0h-20.69c-.47,0-.86.38-.86.86s.38.86.86.86h20.69c.47,0,.86-.38.86-.86s-.38-.86-.86-.86Zm0,0h-20.69c-.47,0-.86.38-.86.86s.38.86.86.86h20.69c.47,0,.86-.38.86-.86s-.38-.86-.86-.86Zm0,0h-20.69c-.47,0-.86.38-.86.86s.38.86.86.86h20.69c.47,0,.86-.38.86-.86s-.38-.86-.86-.86Zm0,0h-20.69c-.47,0-.86.38-.86.86s.38.86.86.86h20.69c.47,0,.86-.38.86-.86s-.38-.86-.86-.86Zm0,0h-20.69c-.47,0-.86.38-.86.86s.38.86.86.86h20.69c.47,0,.86-.38.86-.86s-.38-.86-.86-.86ZM173.06,6.59c-20.74.48-58.03,21.61-58.03,21.61,1.29-.18,12.04.25,16.36-1.19,1.23-.41,1.95-.98,1.77-1.75-.79-3.48,1.11-5.06,1.11-5.06,0,0,6.34-3.97,9.89-1.92,0,0,19.72-13.44,52.81-7.11,0,0,2.37.24.47,3.21-1.66,2.58-3.59,7.89-4.05,9.21,10.8-.76,19.61-1.48,21.63-1.97,6.01-1.42,10.14.31,13.77-6.01,3.64-6.34-34.99-9.5-55.74-9.02Zm42.55,11.6c-1.9,1.9-9.02,2.73-9.02,2.73,0,0-1.36-2.25,2.02-7,.21-.29,7,2.01,7,2.01,0,0,1.9.36,0,2.26Zm-111.8,23.89h-20.69c-.47,0-.86.38-.86.86s.38.86.86.86h20.69c.47,0,.86-.38.86-.86s-.38-.86-.86-.86ZM173.06,6.59c-20.74.48-58.03,21.61-58.03,21.61,1.29-.18,12.04.25,16.36-1.19,1.23-.41,1.95-.98,1.77-1.75-.79-3.48,1.11-5.06,1.11-5.06,0,0,6.34-3.97,9.89-1.92,0,0,19.72-13.44,52.81-7.11,0,0,2.37.24.47,3.21-1.66,2.58-3.59,7.89-4.05,9.21,10.8-.76,19.61-1.48,21.63-1.97,6.01-1.42,10.14.31,13.77-6.01,3.64-6.34-34.99-9.5-55.74-9.02Zm42.55,11.6c-1.9,1.9-9.02,2.73-9.02,2.73,0,0-1.36-2.25,2.02-7,.21-.29,7,2.01,7,2.01,0,0,1.9.36,0,2.26Zm-111.8,23.89h-20.69c-.47,0-.86.38-.86.86s.38.86.86.86h20.69c.47,0,.86-.38.86-.86s-.38-.86-.86-.86ZM173.06,6.59c-20.74.48-58.03,21.61-58.03,21.61,1.29-.18,12.04.25,16.36-1.19,1.23-.41,1.95-.98,1.77-1.75-.79-3.48,1.11-5.06,1.11-5.06,0,0,6.34-3.97,9.89-1.92,0,0,19.72-13.44,52.81-7.11,0,0,2.37.24.47,3.21-1.66,2.58-3.59,7.89-4.05,9.21,10.8-.76,19.61-1.48,21.63-1.97,6.01-1.42,10.14.31,13.77-6.01,3.64-6.34-34.99-9.5-55.74-9.02Zm42.55,11.6c-1.9,1.9-9.02,2.73-9.02,2.73,0,0-1.36-2.25,2.02-7,.21-.29,7,2.01,7,2.01,0,0,1.9.36,0,2.26Zm-111.8,23.89h-20.69c-.47,0-.86.38-.86.86s.38.86.86.86h20.69c.47,0,.86-.38.86-.86s-.38-.86-.86-.86ZM173.06,6.59c-20.74.48-58.03,21.61-58.03,21.61,1.29-.18,12.04.25,16.36-1.19,1.23-.41,1.95-.98,1.77-1.75-.79-3.48,1.11-5.06,1.11-5.06,0,0,6.34-3.97,9.89-1.92,0,0,19.72-13.44,52.81-7.11,0,0,2.37.24.47,3.21-1.66,2.58-3.59,7.89-4.05,9.21,10.8-.76,19.61-1.48,21.63-1.97,6.01-1.42,10.14.31,13.77-6.01,3.64-6.34-34.99-9.5-55.74-9.02Zm42.55,11.6c-1.9,1.9-9.02,2.73-9.02,2.73,0,0-1.36-2.25,2.02-7,.21-.29,7,2.01,7,2.01,0,0,1.9.36,0,2.26Zm-111.8,23.89h-20.69c-.47,0-.86.38-.86.86s.38.86.86.86h20.69c.47,0,.86-.38.86-.86s-.38-.86-.86-.86ZM173.06,6.59c-20.74.48-58.03,21.61-58.03,21.61,1.29-.18,12.04.25,16.36-1.19,1.23-.41,1.95-.98,1.77-1.75-.79-3.48,1.11-5.06,1.11-5.06,0,0,6.34-3.97,9.89-1.92,0,0,19.72-13.44,52.81-7.11,0,0,2.37.24.47,3.21-1.66,2.58-3.59,7.89-4.05,9.21,10.8-.76,19.61-1.48,21.63-1.97,6.01-1.42,10.14.31,13.77-6.01,3.64-6.34-34.99-9.5-55.74-9.02Zm42.55,11.6c-1.9,1.9-9.02,2.73-9.02,2.73,0,0-1.36-2.25,2.02-7,.21-.29,7,2.01,7,2.01,0,0,1.9.36,0,2.26Zm-111.8,23.89h-20.69c-.47,0-.86.38-.86.86s.38.86.86.86h20.69c.47,0,.86-.38.86-.86s-.38-.86-.86-.86ZM173.06,6.59c-20.74.48-58.03,21.61-58.03,21.61,1.29-.18,12.04.25,16.36-1.19,1.23-.41,1.95-.98,1.77-1.75-.79-3.48,1.11-5.06,1.11-5.06,0,0,6.34-3.97,9.89-1.92,0,0,19.72-13.44,52.81-7.11,0,0,2.37.24.47,3.21-1.66,2.58-3.59,7.89-4.05,9.21,10.8-.76,19.61-1.48,21.63-1.97,6.01-1.42,10.14.31,13.77-6.01,3.64-6.34-34.99-9.5-55.74-9.02Zm42.55,11.6c-1.9,1.9-9.02,2.73-9.02,2.73,0,0-1.36-2.25,2.02-7,.21-.29,7,2.01,7,2.01,0,0,1.9.36,0,2.26Zm90.5,20.78l-2.37-2.25s-7.25,1.3-12.12,1.12c-4.86-.18-10.2-7.3-4.98-7.18,1.23.03,2.58-.2,3.91-.56,0,0,.02,0,.02,0,4.36-1.19,8.66-3.82,8.66-3.82l2.62-5.59s2.73-4.64-2.85-4.27c-5.59.36-11.76,2.74-11.76,2.74,0,0-54.46-13.35-65.07-15.4-10.61-2.06-55.74-10.92-95.31,9.02,0,0-25.02,11.73-27.4,11.88,0,0-74.58,3.64-99.11,25.49,0,0-.4,8,0,13.22,0,0-1.11,3.32.79,6.56,0,0-1.26,2.61.87,2.21l.71,5.39s2.61-1.26,3.8,3.09c0,0,13.7,3.33,17.41,2.54,0,0-4.12-41.56,25.81-41.56s32.78,26.37,33.25,41.69l1.11.9s132.13-3.88,135.69-1.74c0,0,1.31,0,1.06-2.49,0,0-4.27-40.62,31.24-40.62s27.44,38,27.44,38c0,0,26.6-5.93,22.55-9.97,0,0,9.27-12.58,4.05-28.38Zm-177.22-9.1s-14.01.15-15.91,0c-1.9-.16-1.19-.95-1.19-.95,0,0,3.49-4.75,27.71-15.03,24.22-10.28,38.59-8.77,38.59-8.77,66.94,1.86,54.62,9.98,54.62,9.98l-5.03,5.82-15.67,2.97-68.4,4.31-14.72,1.66Zm63.81,4.38c0,.77-.63,1.4-1.4,1.4h-10.98c-.77,0-1.4-.63-1.4-1.4s.63-1.4,1.4-1.4h10.98c.77,0,1.4.63,1.4,1.4Zm-83.6,11.66s-.47,21.12,1.9,26.24l58.9-1.9s17.89.63,24.54-12.27c0,0,5.65-11.75,6.49-15.82-.13,1.37-2.43,23.28-14.24,26.5-12.2,3.33-77.59,5.07-77.59,5.07,0,0-2.54-21.76,0-27.83ZM2.34,51.79c7.25-8.55,20.79-9.71,20.79-9.71-10.09,9.05-20.79,9.71-20.79,9.71Zm78.18,5.28c-.09-.16-.19-.33-.3-.51-.24-.39-.49-.81-.8-1.25-.09-.13-.18-.28-.28-.41-.21-.31-.43-.64-.67-.97-.08-.11-.17-.24-.26-.36-.51-.69-1.08-1.43-1.73-2.19-.16-.19-.32-.38-.49-.57-1.33-1.52-2.93-3.1-4.79-4.57-.16-.12-.31-.25-.47-.37-.16-.12-.32-.25-.48-.36-.46-.34-.94-.67-1.43-1-.34-.23-.69-.45-1.04-.66-.5-.3-1.03-.6-1.56-.88-.39-.21-.79-.41-1.2-.6-.16-.08-.32-.15-.5-.23-.16-.08-.33-.14-.5-.22-.33-.15-.67-.29-1.03-.43-.38-.14-.77-.29-1.16-.42-.52-.17-1.05-.34-1.61-.49-.19-.06-.38-.1-.58-.15-.43-.1-.86-.21-1.3-.3-.46-.09-.91-.17-1.39-.25-.28-.05-.56-.09-.84-.12-.03,0-.06,0-.09,0-.25-.04-.49-.07-.74-.09-.42-.04-.85-.08-1.28-.1-.3-.02-.62-.03-.92-.04-.63-.02-1.26-.02-1.92,0-21.21.64-27.39,19.48-27.39,19.48h-5.07s-6.16-3.64-12.35-3.16c-6.18.47-2.05-2.69,5.23-4.04,7.29-1.35,14.1-8.95,15.2-11,1.11-2.06,28.19-8.71,45.12-7.92,0,0-24.89,1.23-43.54,9.21,0,0-.64,2.57,7.29,0,.66-.22,1.44-.49,2.32-.8.29-.1.59-.21.9-.31.93-.32,1.95-.66,3.04-1,.73-.22,1.49-.44,2.29-.65.29-.08.6-.15.9-.22.3-.08.62-.14.93-.21.31-.07.63-.13.95-.19.31-.07.64-.12.97-.17.38-.07.77-.13,1.17-.18.42-.06.85-.1,1.27-.13.23-.03.46-.05.68-.06.29-.03.57-.05.87-.06.06,0,.11,0,.17,0,.43-.02.87-.03,1.31-.03.42,0,.85,0,1.27.03.43.02.87.05,1.3.09.29.02.58.06.87.09.22.02.44.05.66.09.31.05.63.09.93.15.1,0,.19.03.29.06.26.04.51.1.77.16.3.06.59.13.89.22.29.08.59.15.88.25.3.09.6.19.89.29.6.21,1.2.44,1.8.69.29.11.58.26.87.4.66.31,1.33.66,1.98,1.05.24.13.48.28.71.44.14.07.27.16.4.26.14.09.28.18.43.29.12.08.24.16.35.25,0,0,0,0,.02,0,.19.12.39.27.58.42.21.14.41.3.62.48.06.04.12.09.18.14.15.11.29.23.44.35.25.2.49.41.73.63.23.19.45.39.66.6.23.21.46.44.69.66.06.06.11.11.17.17.29.28.58.59.86.89.5.53,1,1.1,1.48,1.7.2.24.4.48.59.73.72.9,1.41,1.86,2.11,2.9.28.41.54.82.81,1.25.61.97,1.22,2,1.8,3.1.07.13.14.28.21.41-.05-.08-.09-.15-.14-.24Zm-1.98-14.99c-1.98-2.42,26.05-2.72,26.05-2.72,0,0,3.09,3,2.06,5.78-1.04,2.77-15.6,2.38-19.8,1.9-4.19-.48-8.31-4.96-8.31-4.96Zm138.7,36.07l-130.62,2.69c-5.22-2.05,14.72-3.16,14.72-3.16,0,0,89.78-3.17,98.01-3.17s11.56.75,16.31,1.59c4.75.84,1.58,2.06,1.58,2.06Zm3.49-20.19c-20.98-13.14-11.09-17.89-11.09-17.89-4.91-.85-94.95,1.83-100.29,2,5.19-.26,88.82-4.29,103.66-4.24,15.31.06,15.79,5.28,15.79,5.28,13.54-6.76,19.95-5.1,19.95-5.1-20.79.83-28.03,19.95-28.03,19.95Zm66.26-2.38c-2.02,2.38-5.32,3.56-5.35,3.2-.59-7.83-6.29-13.41-6.29-13.41,9.97,2.61,29.34-5.59,29.34-5.59,2.02,2.92,1.18,7.37,1.18,7.37-11.4.7-16.85,6.05-18.88,8.43Zm-153.82-30.32c-.79-3.48,1.11-5.06,1.11-5.06,0,0,6.34-3.97,9.89-1.92,0,0,19.72-13.44,52.81-7.11,0,0,2.37.24.47,3.21-1.66,2.58-3.59,7.89-4.05,9.21,10.8-.76,19.61-1.48,21.63-1.97,6.01-1.42,10.14.31,13.77-6.01,3.64-6.34-34.99-9.5-55.74-9.02-20.74.48-58.03,21.61-58.03,21.61,1.29-.18,12.04.25,16.36-1.19,1.23-.41,1.95-.98,1.77-1.75Zm75.45-11.35c.21-.29,7,2.01,7,2.01,0,0,1.9.36,0,2.26-1.9,1.9-9.02,2.73-9.02,2.73,0,0-1.36-2.25,2.02-7Zm-103.95,29.02c0-.48-.38-.86-.86-.86h-20.69c-.47,0-.86.38-.86.86s.38.86.86.86h20.69c.47,0,.86-.38.86-.86ZM173.06,6.59c-20.74.48-58.03,21.61-58.03,21.61,1.29-.18,12.04.25,16.36-1.19,1.23-.41,1.95-.98,1.77-1.75-.79-3.48,1.11-5.06,1.11-5.06,0,0,6.34-3.97,9.89-1.92,0,0,19.72-13.44,52.81-7.11,0,0,2.37.24.47,3.21-1.66,2.58-3.59,7.89-4.05,9.21,10.8-.76,19.61-1.48,21.63-1.97,6.01-1.42,10.14.31,13.77-6.01,3.64-6.34-34.99-9.5-55.74-9.02Zm42.55,11.6c-1.9,1.9-9.02,2.73-9.02,2.73,0,0-1.36-2.25,2.02-7,.21-.29,7,2.01,7,2.01,0,0,1.9.36,0,2.26Zm-111.8,23.89h-20.69c-.47,0-.86.38-.86.86s.38.86.86.86h20.69c.47,0,.86-.38.86-.86s-.38-.86-.86-.86ZM173.06,6.59c-20.74.48-58.03,21.61-58.03,21.61,1.29-.18,12.04.25,16.36-1.19,1.23-.41,1.95-.98,1.77-1.75-.79-3.48,1.11-5.06,1.11-5.06,0,0,6.34-3.97,9.89-1.92,0,0,19.72-13.44,52.81-7.11,0,0,2.37.24.47,3.21-1.66,2.58-3.59,7.89-4.05,9.21,10.8-.76,19.61-1.48,21.63-1.97,6.01-1.42,10.14.31,13.77-6.01,3.64-6.34-34.99-9.5-55.74-9.02Zm42.55,11.6c-1.9,1.9-9.02,2.73-9.02,2.73,0,0-1.36-2.25,2.02-7,.21-.29,7,2.01,7,2.01,0,0,1.9.36,0,2.26Zm-111.8,23.89h-20.69c-.47,0-.86.38-.86.86s.38.86.86.86h20.69c.47,0,.86-.38.86-.86s-.38-.86-.86-.86ZM173.06,6.59c-20.74.48-58.03,21.61-58.03,21.61,1.29-.18,12.04.25,16.36-1.19,1.23-.41,1.95-.98,1.77-1.75-.79-3.48,1.11-5.06,1.11-5.06,0,0,6.34-3.97,9.89-1.92,0,0,19.72-13.44,52.81-7.11,0,0,2.37.24.47,3.21-1.66,2.58-3.59,7.89-4.05,9.21,10.8-.76,19.61-1.48,21.63-1.97,6.01-1.42,10.14.31,13.77-6.01,3.64-6.34-34.99-9.5-55.74-9.02Zm42.55,11.6c-1.9,1.9-9.02,2.73-9.02,2.73,0,0-1.36-2.25,2.02-7,.21-.29,7,2.01,7,2.01,0,0,1.9.36,0,2.26Zm-111.8,23.89h-20.69c-.47,0-.86.38-.86.86s.38.86.86.86h20.69c.47,0,.86-.38.86-.86s-.38-.86-.86-.86ZM173.06,6.59c-20.74.48-58.03,21.61-58.03,21.61,1.29-.18,12.04.25,16.36-1.19,1.23-.41,1.95-.98,1.77-1.75-.79-3.48,1.11-5.06,1.11-5.06,0,0,6.34-3.97,9.89-1.92,0,0,19.72-13.44,52.81-7.11,0,0,2.37.24.47,3.21-1.66,2.58-3.59,7.89-4.05,9.21,10.8-.76,19.61-1.48,21.63-1.97,6.01-1.42,10.14.31,13.77-6.01,3.64-6.34-34.99-9.5-55.74-9.02Zm42.55,11.6c-1.9,1.9-9.02,2.73-9.02,2.73,0,0-1.36-2.25,2.02-7,.21-.29,7,2.01,7,2.01,0,0,1.9.36,0,2.26Zm-111.8,23.89h-20.69c-.47,0-.86.38-.86.86s.38.86.86.86h20.69c.47,0,.86-.38.86-.86s-.38-.86-.86-.86ZM173.06,6.59c-20.74.48-58.03,21.61-58.03,21.61,1.29-.18,12.04.25,16.36-1.19,1.23-.41,1.95-.98,1.77-1.75-.79-3.48,1.11-5.06,1.11-5.06,0,0,6.34-3.97,9.89-1.92,0,0,19.72-13.44,52.81-7.11,0,0,2.37.24.47,3.21-1.66,2.58-3.59,7.89-4.05,9.21,10.8-.76,19.61-1.48,21.63-1.97,6.01-1.42,10.14.31,13.77-6.01,3.64-6.34-34.99-9.5-55.74-9.02Zm42.55,11.6c-1.9,1.9-9.02,2.73-9.02,2.73,0,0-1.36-2.25,2.02-7,.21-.29,7,2.01,7,2.01,0,0,1.9.36,0,2.26Zm-111.8,23.89h-20.69c-.47,0-.86.38-.86.86s.38.86.86.86h20.69c.47,0,.86-.38.86-.86s-.38-.86-.86-.86ZM173.06,6.59c-20.74.48-58.03,21.61-58.03,21.61,1.29-.18,12.04.25,16.36-1.19,1.23-.41,1.95-.98,1.77-1.75-.79-3.48,1.11-5.06,1.11-5.06,0,0,6.34-3.97,9.89-1.92,0,0,19.72-13.44,52.81-7.11,0,0,2.37.24.47,3.21-1.66,2.58-3.59,7.89-4.05,9.21,10.8-.76,19.61-1.48,21.63-1.97,6.01-1.42,10.14.31,13.77-6.01,3.64-6.34-34.99-9.5-55.74-9.02Zm42.55,11.6c-1.9,1.9-9.02,2.73-9.02,2.73,0,0-1.36-2.25,2.02-7,.21-.29,7,2.01,7,2.01,0,0,1.9.36,0,2.26Zm-111.8,23.89h-20.69c-.47,0-.86.38-.86.86s.38.86.86.86h20.69c.47,0,.86-.38.86-.86s-.38-.86-.86-.86Zm0,0h-20.69c-.47,0-.86.38-.86.86s.38.86.86.86h20.69c.47,0,.86-.38.86-.86s-.38-.86-.86-.86Zm0,0h-20.69c-.47,0-.86.38-.86.86s.38.86.86.86h20.69c.47,0,.86-.38.86-.86s-.38-.86-.86-.86Zm0,0h-20.69c-.47,0-.86.38-.86.86s.38.86.86.86h20.69c.47,0,.86-.38.86-.86s-.38-.86-.86-.86Zm0,0h-20.69c-.47,0-.86.38-.86.86s.38.86.86.86h20.69c.47,0,.86-.38.86-.86s-.38-.86-.86-.86Zm0,0h-20.69c-.47,0-.86.38-.86.86s.38.86.86.86h20.69c.47,0,.86-.38.86-.86s-.38-.86-.86-.86Zm0,0h-20.69c-.47,0-.86.38-.86.86s.38.86.86.86h20.69c.47,0,.86-.38.86-.86s-.38-.86-.86-.86Zm88.57-19.09s-35.54,3.07-40.77,2.67c0,0,.12-4.58-2.93-4.27,0,0,2.53,2.93-.08,4.83,0,0,15.91,1.31,43.78-3.22Z"/>
      <path class="cls-1" d="m2.47,75.12s2.42.17,2.5,2.75l16.17,2.92s-29.75-.75-18.67-5.67Z"/>
      <path class="cls-1" d="m81.44,58.78c-.08-.14-.15-.29-.22-.43.1.17.16.32.22.43Z"/>
      <path class="cls-1" d="m104.66,42.94c0,.48-.38.86-.86.86h-20.69c-.47,0-.86-.38-.86-.86s.38-.86.86-.86h20.69c.47,0,.86.38.86.86Z"/>
      <path class="cls-1" d="m104.66,42.94c0,.48-.38.86-.86.86h-20.69c-.47,0-.86-.38-.86-.86s.38-.86.86-.86h20.69c.47,0,.86.38.86.86Z"/>
      <path class="cls-1" d="m173.06,6.59c-20.74.48-58.03,21.61-58.03,21.61,1.29-.18,12.04.25,16.36-1.19,1.23-.41,1.95-.98,1.77-1.75-.79-3.48,1.11-5.06,1.11-5.06,0,0,6.34-3.97,9.89-1.92,0,0,19.72-13.44,52.81-7.11,0,0,2.37.24.47,3.21-1.66,2.58-3.59,7.89-4.05,9.21,10.8-.76,19.61-1.48,21.63-1.97,6.01-1.42,10.14.31,13.77-6.01,3.64-6.34-34.99-9.5-55.74-9.02Zm42.55,11.6c-1.9,1.9-9.02,2.73-9.02,2.73,0,0-1.36-2.25,2.02-7,.21-.29,7,2.01,7,2.01,0,0,1.9.36,0,2.26Z"/>
      <path class="cls-1" d="m193.39,23.6c10.8-.76,19.61-1.48,21.63-1.97,6.01-1.42,10.14.31,13.77-6.01,3.64-6.34-34.99-9.5-55.74-9.02-20.74.48-58.03,21.61-58.03,21.61,1.29-.18,12.04.25,16.36-1.19,1.23-.41,1.95-.98,1.77-1.75-.79-3.48,1.11-5.06,1.11-5.06,0,0,6.34-3.97,9.89-1.92,0,0,19.72-13.44,52.81-7.11,0,0,2.37.24.47,3.21-1.66,2.58-3.59,7.89-4.05,9.21m22.22-5.41c-1.9,1.9-9.02,2.73-9.02,2.73,0,0-1.36-2.25,2.02-7,.21-.29,7,2.01,7,2.01,0,0,1.9.36,0,2.26Z"/>
      <path class="cls-1" d="m144.25,18.62s2.49,3.29,1.23,6.81c-1.27,3.52-11.28,1.82-11.32.75-.04-1.07-2.02-4.43,2.41-6.41,4.43-1.98,7.68-1.15,7.68-1.15Z"/>
      <path class="cls-1" d="m54,72.83v.05s.02,0,.02,0c0,0,0-.03-.02-.04Zm0,0v.05s.02,0,.02,0c0,0,0-.03-.02-.04Zm0,0v.05s.02,0,.02,0c0,0,0-.03-.02-.04Zm0,0v.05s.02,0,.02,0c0,0,0-.03-.02-.04Zm0,0v.05s.02,0,.02,0c0,0,0-.03-.02-.04Zm0,0v.05s.02,0,.02,0c0,0,0-.03-.02-.04Zm0,0v.05s.02,0,.02,0c0,0,0-.03-.02-.04Zm0,0v.05s.02,0,.02,0c0,0,0-.03-.02-.04Zm0,0v.05s.02,0,.02,0c0,0,0-.03-.02-.04Zm0,0v.05s.02,0,.02,0c0,0,0-.03-.02-.04Zm12.87-15.47c0,1.58-1.21,5.63-11.54,11.36.24.37.38.81.41,1.27,11.51-.97,14.94,1.67,15.94,3.07.13-.93.21-1.87.21-2.84,0-4.96-1.9-9.48-5.02-12.86Zm-16.67,11.81c-11.56-5.19-12.39-9.34-12.32-10.6-2.53,3.22-4.02,7.26-4.02,11.66,0,1.65.21,3.25.61,4.77.86-1.48,4.05-4.41,15.54-4.46,0-.1-.02-.21-.02-.31,0-.37.07-.73.21-1.05Zm1.79,3.78c-.44-.13-.83-.37-1.15-.69-8.54,7.95-12.87,7.89-14.47,7.4,2.8,4.89,7.71,8.42,13.49,9.34-.98-1.31-2.41-5.3,2.13-16.05Zm2.01-.12v.05s.02,0,.02,0c0,0,0-.03-.02-.04Zm-1.12-21.61c-3.06,0-5.95.72-8.5,2,1.63.56,5.14,3.07,7.6,14.28.29-.1.59-.15.9-.15.16,0,.32,0,.47.04,2.66-12.49,6.58-14.09,7.79-14.28-2.5-1.22-5.3-1.89-8.26-1.89Zm2.19,20.86c-.28.34-.65.62-1.05.79,5.47,9.74,4.77,14.03,3.94,15.67,5.56-1.54,10.1-5.54,12.36-10.75-1.28.68-5.41,1.58-15.25-5.71Zm11.8-14.72c0,1.58-1.21,5.63-11.54,11.36.24.37.38.81.41,1.27,11.51-.97,14.94,1.67,15.94,3.07.13-.93.21-1.87.21-2.84,0-4.96-1.9-9.48-5.02-12.86Zm-11.8,14.72c-.28.34-.65.62-1.05.79,5.47,9.74,4.77,14.03,3.94,15.67,5.56-1.54,10.1-5.54,12.36-10.75-1.28.68-5.41,1.58-15.25-5.71Zm-2.19-20.86c-3.06,0-5.95.72-8.5,2,1.63.56,5.14,3.07,7.6,14.28.29-.1.59-.15.9-.15.16,0,.32,0,.47.04,2.66-12.49,6.58-14.09,7.79-14.28-2.5-1.22-5.3-1.89-8.26-1.89Zm1.12,21.61v.05s.02,0,.02,0c0,0,0-.03-.02-.04Zm-2.01.12c-.44-.13-.83-.37-1.15-.69-8.54,7.95-12.87,7.89-14.47,7.4,2.8,4.89,7.71,8.42,13.49,9.34-.98-1.31-2.41-5.3,2.13-16.05Zm-1.79-3.78c-11.56-5.19-12.39-9.34-12.32-10.6-2.53,3.22-4.02,7.26-4.02,11.66,0,1.65.21,3.25.61,4.77.86-1.48,4.05-4.41,15.54-4.46,0-.1-.02-.21-.02-.31,0-.37.07-.73.21-1.05Zm16.67-11.81c0,1.58-1.21,5.63-11.54,11.36.24.37.38.81.41,1.27,11.51-.97,14.94,1.67,15.94,3.07.13-.93.21-1.87.21-2.84,0-4.96-1.9-9.48-5.02-12.86Zm-16.67,11.81c-11.56-5.19-12.39-9.34-12.32-10.6-2.53,3.22-4.02,7.26-4.02,11.66,0,1.65.21,3.25.61,4.77.86-1.48,4.05-4.41,15.54-4.46,0-.1-.02-.21-.02-.31,0-.37.07-.73.21-1.05Zm1.79,3.78c-.44-.13-.83-.37-1.15-.69-8.54,7.95-12.87,7.89-14.47,7.4,2.8,4.89,7.71,8.42,13.49,9.34-.98-1.31-2.41-5.3,2.13-16.05Zm2.01-.12v.05s.02,0,.02,0c0,0,0-.03-.02-.04Zm-1.12-21.61c-3.06,0-5.95.72-8.5,2,1.63.56,5.14,3.07,7.6,14.28.29-.1.59-.15.9-.15.16,0,.32,0,.47.04,2.66-12.49,6.58-14.09,7.79-14.28-2.5-1.22-5.3-1.89-8.26-1.89Zm2.19,20.86c-.28.34-.65.62-1.05.79,5.47,9.74,4.77,14.03,3.94,15.67,5.56-1.54,10.1-5.54,12.36-10.75-1.28.68-5.41,1.58-15.25-5.71Zm11.8-14.72c0,1.58-1.21,5.63-11.54,11.36.24.37.38.81.41,1.27,11.51-.97,14.94,1.67,15.94,3.07.13-.93.21-1.87.21-2.84,0-4.96-1.9-9.48-5.02-12.86Zm-11.8,14.72c-.28.34-.65.62-1.05.79,5.47,9.74,4.77,14.03,3.94,15.67,5.56-1.54,10.1-5.54,12.36-10.75-1.28.68-5.41,1.58-15.25-5.71Zm-2.19-20.86c-3.06,0-5.95.72-8.5,2,1.63.56,5.14,3.07,7.6,14.28.29-.1.59-.15.9-.15.16,0,.32,0,.47.04,2.66-12.49,6.58-14.09,7.79-14.28-2.5-1.22-5.3-1.89-8.26-1.89Zm1.12,21.61v.05s.02,0,.02,0c0,0,0-.03-.02-.04Zm-2.01.12c-.44-.13-.83-.37-1.15-.69-8.54,7.95-12.87,7.89-14.47,7.4,2.8,4.89,7.71,8.42,13.49,9.34-.98-1.31-2.41-5.3,2.13-16.05Zm-1.79-3.78c-11.56-5.19-12.39-9.34-12.32-10.6-2.53,3.22-4.02,7.26-4.02,11.66,0,1.65.21,3.25.61,4.77.86-1.48,4.05-4.41,15.54-4.46,0-.1-.02-.21-.02-.31,0-.37.07-.73.21-1.05Zm16.67-11.81c0,1.58-1.21,5.63-11.54,11.36.24.37.38.81.41,1.27,11.51-.97,14.94,1.67,15.94,3.07.13-.93.21-1.87.21-2.84,0-4.96-1.9-9.48-5.02-12.86Zm-16.67,11.81c-11.56-5.19-12.39-9.34-12.32-10.6-2.53,3.22-4.02,7.26-4.02,11.66,0,1.65.21,3.25.61,4.77.86-1.48,4.05-4.41,15.54-4.46,0-.1-.02-.21-.02-.31,0-.37.07-.73.21-1.05Zm1.79,3.78c-.44-.13-.83-.37-1.15-.69-8.54,7.95-12.87,7.89-14.47,7.4,2.8,4.89,7.71,8.42,13.49,9.34-.98-1.31-2.41-5.3,2.13-16.05Zm2.01-.12v.05s.02,0,.02,0c0,0,0-.03-.02-.04Zm-1.12-21.61c-3.06,0-5.95.72-8.5,2,1.63.56,5.14,3.07,7.6,14.28.29-.1.59-.15.9-.15.16,0,.32,0,.47.04,2.66-12.49,6.58-14.09,7.79-14.28-2.5-1.22-5.3-1.89-8.26-1.89Zm2.19,20.86c-.28.34-.65.62-1.05.79,5.47,9.74,4.77,14.03,3.94,15.67,5.56-1.54,10.1-5.54,12.36-10.75-1.28.68-5.41,1.58-15.25-5.71Zm11.8-14.72c0,1.58-1.21,5.63-11.54,11.36.24.37.38.81.41,1.27,11.51-.97,14.94,1.67,15.94,3.07.13-.93.21-1.87.21-2.84,0-4.96-1.9-9.48-5.02-12.86Zm-11.8,14.72c-.28.34-.65.62-1.05.79,5.47,9.74,4.77,14.03,3.94,15.67,5.56-1.54,10.1-5.54,12.36-10.75-1.28.68-5.41,1.58-15.25-5.71Zm-2.19-20.86c-3.06,0-5.95.72-8.5,2,1.63.56,5.14,3.07,7.6,14.28.29-.1.59-.15.9-.15.16,0,.32,0,.47.04,2.66-12.49,6.58-14.09,7.79-14.28-2.5-1.22-5.3-1.89-8.26-1.89Zm1.12,21.61v.05s.02,0,.02,0c0,0,0-.03-.02-.04Zm-2.01.12c-.44-.13-.83-.37-1.15-.69-8.54,7.95-12.87,7.89-14.47,7.4,2.8,4.89,7.71,8.42,13.49,9.34-.98-1.31-2.41-5.3,2.13-16.05Zm-1.79-3.78c-11.56-5.19-12.39-9.34-12.32-10.6-2.53,3.22-4.02,7.26-4.02,11.66,0,1.65.21,3.25.61,4.77.86-1.48,4.05-4.41,15.54-4.46,0-.1-.02-.21-.02-.31,0-.37.07-.73.21-1.05Zm16.67-11.81c0,1.58-1.21,5.63-11.54,11.36.24.37.38.81.41,1.27,11.51-.97,14.94,1.67,15.94,3.07.13-.93.21-1.87.21-2.84,0-4.96-1.9-9.48-5.02-12.86Zm-16.67,11.81c-11.56-5.19-12.39-9.34-12.32-10.6-2.53,3.22-4.02,7.26-4.02,11.66,0,1.65.21,3.25.61,4.77.86-1.48,4.05-4.41,15.54-4.46,0-.1-.02-.21-.02-.31,0-.37.07-.73.21-1.05Zm1.79,3.78c-.44-.13-.83-.37-1.15-.69-8.54,7.95-12.87,7.89-14.47,7.4,2.8,4.89,7.71,8.42,13.49,9.34-.98-1.31-2.41-5.3,2.13-16.05Zm2.01-.12v.05s.02,0,.02,0c0,0,0-.03-.02-.04Zm-1.12-21.61c-3.06,0-5.95.72-8.5,2,1.63.56,5.14,3.07,7.6,14.28.29-.1.59-.15.9-.15.16,0,.32,0,.47.04,2.66-12.49,6.58-14.09,7.79-14.28-2.5-1.22-5.3-1.89-8.26-1.89Zm2.19,20.86c-.28.34-.65.62-1.05.79,5.47,9.74,4.77,14.03,3.94,15.67,5.56-1.54,10.1-5.54,12.36-10.75-1.28.68-5.41,1.58-15.25-5.71Zm11.8-14.72c0,1.58-1.21,5.63-11.54,11.36.24.37.38.81.41,1.27,11.51-.97,14.94,1.67,15.94,3.07.13-.93.21-1.87.21-2.84,0-4.96-1.9-9.48-5.02-12.86Zm-11.8,14.72c-.28.34-.65.62-1.05.79,5.47,9.74,4.77,14.03,3.94,15.67,5.56-1.54,10.1-5.54,12.36-10.75-1.28.68-5.41,1.58-15.25-5.71Zm-2.19-20.86c-3.06,0-5.95.72-8.5,2,1.63.56,5.14,3.07,7.6,14.28.29-.1.59-.15.9-.15.16,0,.32,0,.47.04,2.66-12.49,6.58-14.09,7.79-14.28-2.5-1.22-5.3-1.89-8.26-1.89Zm1.12,21.61v.05s.02,0,.02,0c0,0,0-.03-.02-.04Zm-2.01.12c-.44-.13-.83-.37-1.15-.69-8.54,7.95-12.87,7.89-14.47,7.4,2.8,4.89,7.71,8.42,13.49,9.34-.98-1.31-2.41-5.3,2.13-16.05Zm-1.79-3.78c-11.56-5.19-12.39-9.34-12.32-10.6-2.53,3.22-4.02,7.26-4.02,11.66,0,1.65.21,3.25.61,4.77.86-1.48,4.05-4.41,15.54-4.46,0-.1-.02-.21-.02-.31,0-.37.07-.73.21-1.05Zm16.67-11.81c0,1.58-1.21,5.63-11.54,11.36.24.37.38.81.41,1.27,11.51-.97,14.94,1.67,15.94,3.07.13-.93.21-1.87.21-2.84,0-4.96-1.9-9.48-5.02-12.86Zm-16.67,11.81c-11.56-5.19-12.39-9.34-12.32-10.6-2.53,3.22-4.02,7.26-4.02,11.66,0,1.65.21,3.25.61,4.77.86-1.48,4.05-4.41,15.54-4.46,0-.1-.02-.21-.02-.31,0-.37.07-.73.21-1.05Zm1.79,3.78c-.44-.13-.83-.37-1.15-.69-8.54,7.95-12.87,7.89-14.47,7.4,2.8,4.89,7.71,8.42,13.49,9.34-.98-1.31-2.41-5.3,2.13-16.05Zm2.01-.12v.05s.02,0,.02,0c0,0,0-.03-.02-.04Zm-1.12-21.61c-3.06,0-5.95.72-8.5,2,1.63.56,5.14,3.07,7.6,14.28.29-.1.59-.15.9-.15.16,0,.32,0,.47.04,2.66-12.49,6.58-14.09,7.79-14.28-2.5-1.22-5.3-1.89-8.26-1.89Zm2.19,20.86c-.28.34-.65.62-1.05.79,5.47,9.74,4.77,14.03,3.94,15.67,5.56-1.54,10.1-5.54,12.36-10.75-1.28.68-5.41,1.58-15.25-5.71Zm11.8-14.72c0,1.58-1.21,5.63-11.54,11.36.24.37.38.81.41,1.27,11.51-.97,14.94,1.67,15.94,3.07.13-.93.21-1.87.21-2.84,0-4.96-1.9-9.48-5.02-12.86Zm-11.8,14.72c-.28.34-.65.62-1.05.79,5.47,9.74,4.77,14.03,3.94,15.67,5.56-1.54,10.1-5.54,12.36-10.75-1.28.68-5.41,1.58-15.25-5.71Zm-2.19-20.86c-3.06,0-5.95.72-8.5,2,1.63.56,5.14,3.07,7.6,14.28.29-.1.59-.15.9-.15.16,0,.32,0,.47.04,2.66-12.49,6.58-14.09,7.79-14.28-2.5-1.22-5.3-1.89-8.26-1.89Zm1.12,21.61v.05s.02,0,.02,0c0,0,0-.03-.02-.04Zm-2.01.12c-.44-.13-.83-.37-1.15-.69-8.54,7.95-12.87,7.89-14.47,7.4,2.8,4.89,7.71,8.42,13.49,9.34-.98-1.31-2.41-5.3,2.13-16.05Zm-1.79-3.78c-11.56-5.19-12.39-9.34-12.32-10.6-2.53,3.22-4.02,7.26-4.02,11.66,0,1.65.21,3.25.61,4.77.86-1.48,4.05-4.41,15.54-4.46,0-.1-.02-.21-.02-.31,0-.37.07-.73.21-1.05Zm16.67-11.81c0,1.58-1.21,5.63-11.54,11.36.24.37.38.81.41,1.27,11.51-.97,14.94,1.67,15.94,3.07.13-.93.21-1.87.21-2.84,0-4.96-1.9-9.48-5.02-12.86Zm-16.67,11.81c-11.56-5.19-12.39-9.34-12.32-10.6-2.53,3.22-4.02,7.26-4.02,11.66,0,1.65.21,3.25.61,4.77.86-1.48,4.05-4.41,15.54-4.46,0-.1-.02-.21-.02-.31,0-.37.07-.73.21-1.05Zm1.79,3.78c-.44-.13-.83-.37-1.15-.69-8.54,7.95-12.87,7.89-14.47,7.4,2.8,4.89,7.71,8.42,13.49,9.34-.98-1.31-2.41-5.3,2.13-16.05Zm2.01-.12v.05s.02,0,.02,0c0,0,0-.03-.02-.04Zm-1.12-21.61c-3.06,0-5.95.72-8.5,2,1.63.56,5.14,3.07,7.6,14.28.29-.1.59-.15.9-.15.16,0,.32,0,.47.04,2.66-12.49,6.58-14.09,7.79-14.28-2.5-1.22-5.3-1.89-8.26-1.89Zm2.19,20.86c-.28.34-.65.62-1.05.79,5.47,9.74,4.77,14.03,3.94,15.67,5.56-1.54,10.1-5.54,12.36-10.75-1.28.68-5.41,1.58-15.25-5.71Zm11.8-14.72c0,1.58-1.21,5.63-11.54,11.36.24.37.38.81.41,1.27,11.51-.97,14.94,1.67,15.94,3.07.13-.93.21-1.87.21-2.84,0-4.96-1.9-9.48-5.02-12.86Zm-11.8,14.72c-.28.34-.65.62-1.05.79,5.47,9.74,4.77,14.03,3.94,15.67,5.56-1.54,10.1-5.54,12.36-10.75-1.28.68-5.41,1.58-15.25-5.71Zm6.07-18.97c-2.5-1.22-5.3-1.89-8.26-1.89s-5.95.72-8.5,2c1.63.56,5.14,3.07,7.6,14.28.29-.1.59-.15.9-.15.16,0,.32,0,.47.04,2.66-12.49,6.58-14.09,7.79-14.28Zm-7.13,19.77h0s0-.04-.02-.05v.05Zm-3.17-.62c-8.54,7.95-12.87,7.89-14.47,7.4,2.8,4.89,7.71,8.42,13.49,9.34-.98-1.31-2.41-5.3,2.13-16.05-.44-.13-.83-.37-1.15-.69Zm-.84-2.03c0-.37.07-.73.21-1.05-11.56-5.19-12.39-9.34-12.32-10.6-2.53,3.22-4.02,7.26-4.02,11.66,0,1.65.21,3.25.61,4.77.86-1.48,4.05-4.41,15.54-4.46,0-.1-.02-.21-.02-.31Zm16.88-12.86c0,1.58-1.21,5.63-11.54,11.36.24.37.38.81.41,1.27,11.51-.97,14.94,1.67,15.94,3.07.13-.93.21-1.87.21-2.84,0-4.96-1.9-9.48-5.02-12.86Zm-13.99-12.07c-13.78,0-24.94,11.16-24.94,24.94s11.16,24.94,24.94,24.94,24.94-11.16,24.94-24.94-11.17-24.94-24.94-24.94Zm0,45.1c-11.13,0-20.17-9.02-20.17-20.16s9.03-20.17,20.17-20.17,20.16,9.03,20.16,20.17-9.03,20.16-20.16,20.16Zm2.19-18.31c-.28.34-.65.62-1.05.79,5.47,9.74,4.77,14.03,3.94,15.67,5.56-1.54,10.1-5.54,12.36-10.75-1.28.68-5.41,1.58-15.25-5.71Zm6.07-18.97c-2.5-1.22-5.3-1.89-8.26-1.89s-5.95.72-8.5,2c1.63.56,5.14,3.07,7.6,14.28.29-.1.59-.15.9-.15.16,0,.32,0,.47.04,2.66-12.49,6.58-14.09,7.79-14.28Zm-7.13,19.77h0s0-.04-.02-.05v.05Zm-3.17-.62c-8.54,7.95-12.87,7.89-14.47,7.4,2.8,4.89,7.71,8.42,13.49,9.34-.98-1.31-2.41-5.3,2.13-16.05-.44-.13-.83-.37-1.15-.69Zm-.84-2.03c0-.37.07-.73.21-1.05-11.56-5.19-12.39-9.34-12.32-10.6-2.53,3.22-4.02,7.26-4.02,11.66,0,1.65.21,3.25.61,4.77.86-1.48,4.05-4.41,15.54-4.46,0-.1-.02-.21-.02-.31Zm16.88-12.86c0,1.58-1.21,5.63-11.54,11.36.24.37.38.81.41,1.27,11.51-.97,14.94,1.67,15.94,3.07.13-.93.21-1.87.21-2.84,0-4.96-1.9-9.48-5.02-12.86Zm-16.67,11.81c-11.56-5.19-12.39-9.34-12.32-10.6-2.53,3.22-4.02,7.26-4.02,11.66,0,1.65.21,3.25.61,4.77.86-1.48,4.05-4.41,15.54-4.46,0-.1-.02-.21-.02-.31,0-.37.07-.73.21-1.05Zm1.79,3.78c-.44-.13-.83-.37-1.15-.69-8.54,7.95-12.87,7.89-14.47,7.4,2.8,4.89,7.71,8.42,13.49,9.34-.98-1.31-2.41-5.3,2.13-16.05Zm2.01-.12v.05s.02,0,.02,0c0,0,0-.03-.02-.04Zm-1.12-21.61c-3.06,0-5.95.72-8.5,2,1.63.56,5.14,3.07,7.6,14.28.29-.1.59-.15.9-.15.16,0,.32,0,.47.04,2.66-12.49,6.58-14.09,7.79-14.28-2.5-1.22-5.3-1.89-8.26-1.89Zm2.19,20.86c-.28.34-.65.62-1.05.79,5.47,9.74,4.77,14.03,3.94,15.67,5.56-1.54,10.1-5.54,12.36-10.75-1.28.68-5.41,1.58-15.25-5.71Zm11.8-14.72c0,1.58-1.21,5.63-11.54,11.36.24.37.38.81.41,1.27,11.51-.97,14.94,1.67,15.94,3.07.13-.93.21-1.87.21-2.84,0-4.96-1.9-9.48-5.02-12.86Zm-11.8,14.72c-.28.34-.65.62-1.05.79,5.47,9.74,4.77,14.03,3.94,15.67,5.56-1.54,10.1-5.54,12.36-10.75-1.28.68-5.41,1.58-15.25-5.71Zm-2.19-20.86c-3.06,0-5.95.72-8.5,2,1.63.56,5.14,3.07,7.6,14.28.29-.1.59-.15.9-.15.16,0,.32,0,.47.04,2.66-12.49,6.58-14.09,7.79-14.28-2.5-1.22-5.3-1.89-8.26-1.89Zm1.12,21.61v.05s.02,0,.02,0c0,0,0-.03-.02-.04Zm-2.01.12c-.44-.13-.83-.37-1.15-.69-8.54,7.95-12.87,7.89-14.47,7.4,2.8,4.89,7.71,8.42,13.49,9.34-.98-1.31-2.41-5.3,2.13-16.05Zm-1.79-3.78c-11.56-5.19-12.39-9.34-12.32-10.6-2.53,3.22-4.02,7.26-4.02,11.66,0,1.65.21,3.25.61,4.77.86-1.48,4.05-4.41,15.54-4.46,0-.1-.02-.21-.02-.31,0-.37.07-.73.21-1.05Zm16.67-11.81c0,1.58-1.21,5.63-11.54,11.36.24.37.38.81.41,1.27,11.51-.97,14.94,1.67,15.94,3.07.13-.93.21-1.87.21-2.84,0-4.96-1.9-9.48-5.02-12.86Zm-16.67,11.81c-11.56-5.19-12.39-9.34-12.32-10.6-2.53,3.22-4.02,7.26-4.02,11.66,0,1.65.21,3.25.61,4.77.86-1.48,4.05-4.41,15.54-4.46,0-.1-.02-.21-.02-.31,0-.37.07-.73.21-1.05Zm1.79,3.78c-.44-.13-.83-.37-1.15-.69-8.54,7.95-12.87,7.89-14.47,7.4,2.8,4.89,7.71,8.42,13.49,9.34-.98-1.31-2.41-5.3,2.13-16.05Zm2.01-.12v.05s.02,0,.02,0c0,0,0-.03-.02-.04Zm-1.12-21.61c-3.06,0-5.95.72-8.5,2,1.63.56,5.14,3.07,7.6,14.28.29-.1.59-.15.9-.15.16,0,.32,0,.47.04,2.66-12.49,6.58-14.09,7.79-14.28-2.5-1.22-5.3-1.89-8.26-1.89Zm2.19,20.86c-.28.34-.65.62-1.05.79,5.47,9.74,4.77,14.03,3.94,15.67,5.56-1.54,10.1-5.54,12.36-10.75-1.28.68-5.41,1.58-15.25-5.71Zm11.8-14.72c0,1.58-1.21,5.63-11.54,11.36.24.37.38.81.41,1.27,11.51-.97,14.94,1.67,15.94,3.07.13-.93.21-1.87.21-2.84,0-4.96-1.9-9.48-5.02-12.86Zm-11.8,14.72c-.28.34-.65.62-1.05.79,5.47,9.74,4.77,14.03,3.94,15.67,5.56-1.54,10.1-5.54,12.36-10.75-1.28.68-5.41,1.58-15.25-5.71Zm-2.19-20.86c-3.06,0-5.95.72-8.5,2,1.63.56,5.14,3.07,7.6,14.28.29-.1.59-.15.9-.15.16,0,.32,0,.47.04,2.66-12.49,6.58-14.09,7.79-14.28-2.5-1.22-5.3-1.89-8.26-1.89Zm1.12,21.61v.05s.02,0,.02,0c0,0,0-.03-.02-.04Zm-2.01.12c-.44-.13-.83-.37-1.15-.69-8.54,7.95-12.87,7.89-14.47,7.4,2.8,4.89,7.71,8.42,13.49,9.34-.98-1.31-2.41-5.3,2.13-16.05Zm-1.79-3.78c-11.56-5.19-12.39-9.34-12.32-10.6-2.53,3.22-4.02,7.26-4.02,11.66,0,1.65.21,3.25.61,4.77.86-1.48,4.05-4.41,15.54-4.46,0-.1-.02-.21-.02-.31,0-.37.07-.73.21-1.05Zm16.67-11.81c0,1.58-1.21,5.63-11.54,11.36.24.37.38.81.41,1.27,11.51-.97,14.94,1.67,15.94,3.07.13-.93.21-1.87.21-2.84,0-4.96-1.9-9.48-5.02-12.86Zm-16.67,11.81c-11.56-5.19-12.39-9.34-12.32-10.6-2.53,3.22-4.02,7.26-4.02,11.66,0,1.65.21,3.25.61,4.77.86-1.48,4.05-4.41,15.54-4.46,0-.1-.02-.21-.02-.31,0-.37.07-.73.21-1.05Zm1.79,3.78c-.44-.13-.83-.37-1.15-.69-8.54,7.95-12.87,7.89-14.47,7.4,2.8,4.89,7.71,8.42,13.49,9.34-.98-1.31-2.41-5.3,2.13-16.05Zm2.01-.12v.05s.02,0,.02,0c0,0,0-.03-.02-.04Zm-1.12-21.61c-3.06,0-5.95.72-8.5,2,1.63.56,5.14,3.07,7.6,14.28.29-.1.59-.15.9-.15.16,0,.32,0,.47.04,2.66-12.49,6.58-14.09,7.79-14.28-2.5-1.22-5.3-1.89-8.26-1.89Zm2.19,20.86c-.28.34-.65.62-1.05.79,5.47,9.74,4.77,14.03,3.94,15.67,5.56-1.54,10.1-5.54,12.36-10.75-1.28.68-5.41,1.58-15.25-5.71Zm11.8-14.72c0,1.58-1.21,5.63-11.54,11.36.24.37.38.81.41,1.27,11.51-.97,14.94,1.67,15.94,3.07.13-.93.21-1.87.21-2.84,0-4.96-1.9-9.48-5.02-12.86Zm-11.8,14.72c-.28.34-.65.62-1.05.79,5.47,9.74,4.77,14.03,3.94,15.67,5.56-1.54,10.1-5.54,12.36-10.75-1.28.68-5.41,1.58-15.25-5.71Zm-2.19-20.86c-3.06,0-5.95.72-8.5,2,1.63.56,5.14,3.07,7.6,14.28.29-.1.59-.15.9-.15.16,0,.32,0,.47.04,2.66-12.49,6.58-14.09,7.79-14.28-2.5-1.22-5.3-1.89-8.26-1.89Zm1.12,21.61v.05s.02,0,.02,0c0,0,0-.03-.02-.04Zm-2.01.12c-.44-.13-.83-.37-1.15-.69-8.54,7.95-12.87,7.89-14.47,7.4,2.8,4.89,7.71,8.42,13.49,9.34-.98-1.31-2.41-5.3,2.13-16.05Zm-1.79-3.78c-11.56-5.19-12.39-9.34-12.32-10.6-2.53,3.22-4.02,7.26-4.02,11.66,0,1.65.21,3.25.61,4.77.86-1.48,4.05-4.41,15.54-4.46,0-.1-.02-.21-.02-.31,0-.37.07-.73.21-1.05Zm16.67-11.81c0,1.58-1.21,5.63-11.54,11.36.24.37.38.81.41,1.27,11.51-.97,14.94,1.67,15.94,3.07.13-.93.21-1.87.21-2.84,0-4.96-1.9-9.48-5.02-12.86Zm-16.67,11.81c-11.56-5.19-12.39-9.34-12.32-10.6-2.53,3.22-4.02,7.26-4.02,11.66,0,1.65.21,3.25.61,4.77.86-1.48,4.05-4.41,15.54-4.46,0-.1-.02-.21-.02-.31,0-.37.07-.73.21-1.05Zm1.79,3.78c-.44-.13-.83-.37-1.15-.69-8.54,7.95-12.87,7.89-14.47,7.4,2.8,4.89,7.71,8.42,13.49,9.34-.98-1.31-2.41-5.3,2.13-16.05Zm2.01-.12v.05s.02,0,.02,0c0,0,0-.03-.02-.04Zm-1.12-21.61c-3.06,0-5.95.72-8.5,2,1.63.56,5.14,3.07,7.6,14.28.29-.1.59-.15.9-.15.16,0,.32,0,.47.04,2.66-12.49,6.58-14.09,7.79-14.28-2.5-1.22-5.3-1.89-8.26-1.89Zm2.19,20.86c-.28.34-.65.62-1.05.79,5.47,9.74,4.77,14.03,3.94,15.67,5.56-1.54,10.1-5.54,12.36-10.75-1.28.68-5.41,1.58-15.25-5.71Zm11.8-14.72c0,1.58-1.21,5.63-11.54,11.36.24.37.38.81.41,1.27,11.51-.97,14.94,1.67,15.94,3.07.13-.93.21-1.87.21-2.84,0-4.96-1.9-9.48-5.02-12.86Zm-11.8,14.72c-.28.34-.65.62-1.05.79,5.47,9.74,4.77,14.03,3.94,15.67,5.56-1.54,10.1-5.54,12.36-10.75-1.28.68-5.41,1.58-15.25-5.71Zm-2.19-20.86c-3.06,0-5.95.72-8.5,2,1.63.56,5.14,3.07,7.6,14.28.29-.1.59-.15.9-.15.16,0,.32,0,.47.04,2.66-12.49,6.58-14.09,7.79-14.28-2.5-1.22-5.3-1.89-8.26-1.89Zm1.12,21.61v.05s.02,0,.02,0c0,0,0-.03-.02-.04Zm-2.01.12c-.44-.13-.83-.37-1.15-.69-8.54,7.95-12.87,7.89-14.47,7.4,2.8,4.89,7.71,8.42,13.49,9.34-.98-1.31-2.41-5.3,2.13-16.05Zm-1.79-3.78c-11.56-5.19-12.39-9.34-12.32-10.6-2.53,3.22-4.02,7.26-4.02,11.66,0,1.65.21,3.25.61,4.77.86-1.48,4.05-4.41,15.54-4.46,0-.1-.02-.21-.02-.31,0-.37.07-.73.21-1.05Zm16.67-11.81c0,1.58-1.21,5.63-11.54,11.36.24.37.38.81.41,1.27,11.51-.97,14.94,1.67,15.94,3.07.13-.93.21-1.87.21-2.84,0-4.96-1.9-9.48-5.02-12.86Zm-16.67,11.81c-11.56-5.19-12.39-9.34-12.32-10.6-2.53,3.22-4.02,7.26-4.02,11.66,0,1.65.21,3.25.61,4.77.86-1.48,4.05-4.41,15.54-4.46,0-.1-.02-.21-.02-.31,0-.37.07-.73.21-1.05Zm1.79,3.78c-.44-.13-.83-.37-1.15-.69-8.54,7.95-12.87,7.89-14.47,7.4,2.8,4.89,7.71,8.42,13.49,9.34-.98-1.31-2.41-5.3,2.13-16.05Zm2.01-.12v.05s.02,0,.02,0c0,0,0-.03-.02-.04Zm-1.12-21.61c-3.06,0-5.95.72-8.5,2,1.63.56,5.14,3.07,7.6,14.28.29-.1.59-.15.9-.15.16,0,.32,0,.47.04,2.66-12.49,6.58-14.09,7.79-14.28-2.5-1.22-5.3-1.89-8.26-1.89Zm2.19,20.86c-.28.34-.65.62-1.05.79,5.47,9.74,4.77,14.03,3.94,15.67,5.56-1.54,10.1-5.54,12.36-10.75-1.28.68-5.41,1.58-15.25-5.71Zm11.8-14.72c0,1.58-1.21,5.63-11.54,11.36.24.37.38.81.41,1.27,11.51-.97,14.94,1.67,15.94,3.07.13-.93.21-1.87.21-2.84,0-4.96-1.9-9.48-5.02-12.86Zm-11.8,14.72c-.28.34-.65.62-1.05.79,5.47,9.74,4.77,14.03,3.94,15.67,5.56-1.54,10.1-5.54,12.36-10.75-1.28.68-5.41,1.58-15.25-5.71Zm-2.19-20.86c-3.06,0-5.95.72-8.5,2,1.63.56,5.14,3.07,7.6,14.28.29-.1.59-.15.9-.15.16,0,.32,0,.47.04,2.66-12.49,6.58-14.09,7.79-14.28-2.5-1.22-5.3-1.89-8.26-1.89Zm1.12,21.61v.05s.02,0,.02,0c0,0,0-.03-.02-.04Zm-2.01.12c-.44-.13-.83-.37-1.15-.69-8.54,7.95-12.87,7.89-14.47,7.4,2.8,4.89,7.71,8.42,13.49,9.34-.98-1.31-2.41-5.3,2.13-16.05Zm-1.79-3.78c-11.56-5.19-12.39-9.34-12.32-10.6-2.53,3.22-4.02,7.26-4.02,11.66,0,1.65.21,3.25.61,4.77.86-1.48,4.05-4.41,15.54-4.46,0-.1-.02-.21-.02-.31,0-.37.07-.73.21-1.05Zm16.67-11.81c0,1.58-1.21,5.63-11.54,11.36.24.37.38.81.41,1.27,11.51-.97,14.94,1.67,15.94,3.07.13-.93.21-1.87.21-2.84,0-4.96-1.9-9.48-5.02-12.86Zm-16.67,11.81c-11.56-5.19-12.39-9.34-12.32-10.6-2.53,3.22-4.02,7.26-4.02,11.66,0,1.65.21,3.25.61,4.77.86-1.48,4.05-4.41,15.54-4.46,0-.1-.02-.21-.02-.31,0-.37.07-.73.21-1.05Zm1.79,3.78c-.44-.13-.83-.37-1.15-.69-8.54,7.95-12.87,7.89-14.47,7.4,2.8,4.89,7.71,8.42,13.49,9.34-.98-1.31-2.41-5.3,2.13-16.05Zm2.01-.12v.05s.02,0,.02,0c0,0,0-.03-.02-.04Zm-1.12-21.61c-3.06,0-5.95.72-8.5,2,1.63.56,5.14,3.07,7.6,14.28.29-.1.59-.15.9-.15.16,0,.32,0,.47.04,2.66-12.49,6.58-14.09,7.79-14.28-2.5-1.22-5.3-1.89-8.26-1.89Zm2.19,20.86c-.28.34-.65.62-1.05.79,5.47,9.74,4.77,14.03,3.94,15.67,5.56-1.54,10.1-5.54,12.36-10.75-1.28.68-5.41,1.58-15.25-5.71Zm11.8-14.72c0,1.58-1.21,5.63-11.54,11.36.24.37.38.81.41,1.27,11.51-.97,14.94,1.67,15.94,3.07.13-.93.21-1.87.21-2.84,0-4.96-1.9-9.48-5.02-12.86Zm-11.8,14.72c-.28.34-.65.62-1.05.79,5.47,9.74,4.77,14.03,3.94,15.67,5.56-1.54,10.1-5.54,12.36-10.75-1.28.68-5.41,1.58-15.25-5.71Zm-2.19-20.86c-3.06,0-5.95.72-8.5,2,1.63.56,5.14,3.07,7.6,14.28.29-.1.59-.15.9-.15.16,0,.32,0,.47.04,2.66-12.49,6.58-14.09,7.79-14.28-2.5-1.22-5.3-1.89-8.26-1.89Zm1.12,21.61v.05s.02,0,.02,0c0,0,0-.03-.02-.04Zm-2.01.12c-.44-.13-.83-.37-1.15-.69-8.54,7.95-12.87,7.89-14.47,7.4,2.8,4.89,7.71,8.42,13.49,9.34-.98-1.31-2.41-5.3,2.13-16.05Zm-1.79-3.78c-11.56-5.19-12.39-9.34-12.32-10.6-2.53,3.22-4.02,7.26-4.02,11.66,0,1.65.21,3.25.61,4.77.86-1.48,4.05-4.41,15.54-4.46,0-.1-.02-.21-.02-.31,0-.37.07-.73.21-1.05Zm3.8,3.66v.05s.02,0,.02,0c0,0,0-.03-.02-.04Zm0,0v.05s.02,0,.02,0c0,0,0-.03-.02-.04Zm0,0v.05s.02,0,.02,0c0,0,0-.03-.02-.04Zm0,0v.05s.02,0,.02,0c0,0,0-.03-.02-.04Zm0,0v.05s.02,0,.02,0c0,0,0-.03-.02-.04Zm0,0v.05s.02,0,.02,0c0,0,0-.03-.02-.04Zm0,0v.05s.02,0,.02,0c0,0,0-.03-.02-.04Zm0,0v.05s.02,0,.02,0c0,0,0-.03-.02-.04Zm0,0v.05s.02,0,.02,0c0,0,0-.03-.02-.04Zm0,0v.05s.02,0,.02,0c0,0,0-.03-.02-.04Z"/>
      <path class="cls-1" d="m49.99,70.22c0,.1,0,.21.02.31-11.49.05-14.68,2.97-15.54,4.46-.4-1.52-.61-3.12-.61-4.77,0-4.4,1.49-8.44,4.02-11.66-.07,1.26.76,5.42,12.32,10.6-.14.32-.21.68-.21,1.05Z"/>
      <path class="cls-1" d="m49.86,89c-5.78-.92-10.69-4.45-13.49-9.34,1.6.49,5.93.55,14.47-7.4.32.32.71.56,1.15.69-4.54,10.74-3.11,14.73-2.13,16.05Z"/>
      <path class="cls-1" d="m54.02,72.86h0s0-.04,0-.04c0,0,.02.03.02.04Z"/>
      <path class="cls-1" d="m61.14,53.1c-1.21.19-5.13,1.79-7.79,14.28-.15-.03-.31-.04-.47-.04-.31,0-.62.05-.9.15-2.46-11.21-5.97-13.72-7.6-14.28,2.55-1.28,5.44-2,8.5-2s5.77.67,8.26,1.89Z"/>
      <path class="cls-1" d="m70.32,77.78c-2.26,5.22-6.8,9.22-12.36,10.75.83-1.64,1.53-5.94-3.94-15.67.41-.17.77-.45,1.05-.79,9.83,7.29,13.97,6.39,15.25,5.71Z"/>
      <path class="cls-1" d="m71.89,70.22c0,.97-.08,1.91-.21,2.84-1-1.4-4.43-4.04-15.94-3.07-.03-.47-.17-.9-.41-1.27,10.34-5.73,11.54-9.78,11.54-11.36,3.12,3.38,5.02,7.9,5.02,12.86Z"/>
      <path class="cls-1" d="m54,72.83v.05s.02,0,.02,0c0,0,0-.03-.02-.04Zm0,0v.05s.02,0,.02,0c0,0,0-.03-.02-.04Zm0,0v.05s.02,0,.02,0c0,0,0-.03-.02-.04Zm0,0v.05s.02,0,.02,0c0,0,0-.03-.02-.04Zm0,0v.05s.02,0,.02,0c0,0,0-.03-.02-.04Zm0,0v.05s.02,0,.02,0c0,0,0-.03-.02-.04Zm0,0v.05s.02,0,.02,0c0,0,0-.03-.02-.04Zm0,0v.05s.02,0,.02,0c0,0,0-.03-.02-.04Zm0,0v.05s.02,0,.02,0c0,0,0-.03-.02-.04Zm0,0v.05s.02,0,.02,0c0,0,0-.03-.02-.04Zm12.87-15.47c0,1.58-1.21,5.63-11.54,11.36.24.37.38.81.41,1.27,11.51-.97,14.94,1.67,15.94,3.07.13-.93.21-1.87.21-2.84,0-4.96-1.9-9.48-5.02-12.86Zm-11.8,14.72c-.28.34-.65.62-1.05.79,5.47,9.74,4.77,14.03,3.94,15.67,5.56-1.54,10.1-5.54,12.36-10.75-1.28.68-5.41,1.58-15.25-5.71Zm-2.19-20.86c-3.06,0-5.95.72-8.5,2,1.63.56,5.14,3.07,7.6,14.28.29-.1.59-.15.9-.15.16,0,.32,0,.47.04,2.66-12.49,6.58-14.09,7.79-14.28-2.5-1.22-5.3-1.89-8.26-1.89Zm1.12,21.61v.05s.02,0,.02,0c0,0,0-.03-.02-.04Zm-2.01.12c-.44-.13-.83-.37-1.15-.69-8.54,7.95-12.87,7.89-14.47,7.4,2.8,4.89,7.71,8.42,13.49,9.34-.98-1.31-2.41-5.3,2.13-16.05Zm-1.79-3.78c-11.56-5.19-12.39-9.34-12.32-10.6-2.53,3.22-4.02,7.26-4.02,11.66,0,1.65.21,3.25.61,4.77.86-1.48,4.05-4.41,15.54-4.46,0-.1-.02-.21-.02-.31,0-.37.07-.73.21-1.05Zm3.8,3.66v.05s.02,0,.02,0c0,0,0-.03-.02-.04Zm0,0v.05s.02,0,.02,0c0,0,0-.03-.02-.04Zm0,0v.05s.02,0,.02,0c0,0,0-.03-.02-.04Zm0,0v.05s.02,0,.02,0c0,0,0-.03-.02-.04Zm0,0v.05s.02,0,.02,0c0,0,0-.03-.02-.04Zm0,0v.05s.02,0,.02,0c0,0,0-.03-.02-.04Zm0,0v.05s.02,0,.02,0c0,0,0-.03-.02-.04Zm0,0v.05s.02,0,.02,0c0,0,0-.03-.02-.04Zm0,0v.05s.02,0,.02,0c0,0,0-.03-.02-.04Zm0,0v.05s.02,0,.02,0c0,0,0-.03-.02-.04Z"/>
      <path class="cls-1" d="m55.76,70.22c0,.68-.25,1.32-.65,1.81-.02.02-.03.03-.04.04-.28.34-.65.62-1.05.79,0,0,0-.03-.02-.04v.05c-.33.14-.72.23-1.12.23-.3,0-.6-.05-.87-.14-.01,0-.01,0-.02,0-.44-.13-.83-.37-1.15-.69,0,0-.02-.03-.04-.04-.42-.43-.7-1-.78-1.62,0-.02,0-.05,0-.07,0-.1-.02-.21-.02-.31,0-.37.07-.73.21-1.05,0-.03.02-.07.03-.1.32-.73.93-1.3,1.69-1.56.02-.02.04-.02.06-.02.29-.1.59-.15.9-.15.16,0,.32,0,.47.04.03,0,.06,0,.09.02.79.15,1.46.63,1.87,1.28,0,0,.02.02.02.04.24.37.38.81.41,1.27,0,0,0,.03,0,.04h0c0,.08,0,.12,0,.19Z"/>
      <path class="cls-1" d="m54.02,72.86h0s0-.04,0-.04c0,0,.02.03.02.04Z"/>
      <path class="cls-1" d="m54.02,72.86h0s0-.04,0-.04c0,0,.02.03.02.04Z"/>
      <path class="cls-1" d="m252.55,70.1v.05s.02,0,.02,0c0,0,0-.03-.02-.04Zm0,0v.05s.02,0,.02,0c0,0,0-.03-.02-.04Zm0,0v.05s.02,0,.02,0c0,0,0-.03-.02-.04Zm0,0v.05s.02,0,.02,0c0,0,0-.03-.02-.04Zm0,0v.05s.02,0,.02,0c0,0,0-.03-.02-.04Zm0,0v.05s.02,0,.02,0c0,0,0-.03-.02-.04Zm0,0v.05s.02,0,.02,0c0,0,0-.03-.02-.04Zm0,0v.05s.02,0,.02,0c0,0,0-.03-.02-.04Zm0,0v.05s.02,0,.02,0c0,0,0-.03-.02-.04Zm0,0v.05s.02,0,.02,0c0,0,0-.03-.02-.04Zm12.87-15.47c0,1.58-1.21,5.63-11.54,11.36.24.37.38.81.41,1.27,11.51-.97,14.94,1.67,15.94,3.07.13-.93.21-1.87.21-2.84,0-4.96-1.9-9.48-5.02-12.86Zm-16.67,11.81c-11.56-5.19-12.39-9.34-12.32-10.6-2.53,3.22-4.02,7.26-4.02,11.66,0,1.65.21,3.25.61,4.77.86-1.48,4.05-4.41,15.54-4.46,0-.1-.02-.21-.02-.31,0-.37.07-.73.21-1.05Zm1.79,3.78c-.44-.13-.83-.37-1.15-.69-8.54,7.95-12.87,7.89-14.47,7.4,2.8,4.89,7.71,8.42,13.49,9.34-.98-1.31-2.41-5.3,2.13-16.05Zm2.01-.12v.05s.02,0,.02,0c0,0,0-.03-.02-.04Zm-1.12-21.61c-3.06,0-5.95.72-8.5,2,1.63.56,5.14,3.07,7.6,14.28.29-.1.59-.15.9-.15.16,0,.32,0,.48.04,2.66-12.49,6.58-14.09,7.79-14.28-2.5-1.22-5.3-1.89-8.26-1.89Zm2.19,20.86c-.28.34-.65.62-1.05.79,5.47,9.74,4.77,14.03,3.94,15.68,5.56-1.54,10.1-5.54,12.36-10.75-1.28.68-5.41,1.58-15.25-5.71Zm11.8-14.72c0,1.58-1.21,5.63-11.54,11.36.24.37.38.81.41,1.27,11.51-.97,14.94,1.67,15.94,3.07.13-.93.21-1.87.21-2.84,0-4.96-1.9-9.48-5.02-12.86Zm-11.8,14.72c-.28.34-.65.62-1.05.79,5.47,9.74,4.77,14.03,3.94,15.68,5.56-1.54,10.1-5.54,12.36-10.75-1.28.68-5.41,1.58-15.25-5.71Zm-2.19-20.86c-3.06,0-5.95.72-8.5,2,1.63.56,5.14,3.07,7.6,14.28.29-.1.59-.15.9-.15.16,0,.32,0,.48.04,2.66-12.49,6.58-14.09,7.79-14.28-2.5-1.22-5.3-1.89-8.26-1.89Zm1.12,21.61v.05s.02,0,.02,0c0,0,0-.03-.02-.04Zm-2.01.12c-.44-.13-.83-.37-1.15-.69-8.54,7.95-12.87,7.89-14.47,7.4,2.8,4.89,7.71,8.42,13.49,9.34-.98-1.31-2.41-5.3,2.13-16.05Zm-1.79-3.78c-11.56-5.19-12.39-9.34-12.32-10.6-2.53,3.22-4.02,7.26-4.02,11.66,0,1.65.21,3.25.61,4.77.86-1.48,4.05-4.41,15.54-4.46,0-.1-.02-.21-.02-.31,0-.37.07-.73.21-1.05Zm16.67-11.81c0,1.58-1.21,5.63-11.54,11.36.24.37.38.81.41,1.27,11.51-.97,14.94,1.67,15.94,3.07.13-.93.21-1.87.21-2.84,0-4.96-1.9-9.48-5.02-12.86Zm-16.67,11.81c-11.56-5.19-12.39-9.34-12.32-10.6-2.53,3.22-4.02,7.26-4.02,11.66,0,1.65.21,3.25.61,4.77.86-1.48,4.05-4.41,15.54-4.46,0-.1-.02-.21-.02-.31,0-.37.07-.73.21-1.05Zm1.79,3.78c-.44-.13-.83-.37-1.15-.69-8.54,7.95-12.87,7.89-14.47,7.4,2.8,4.89,7.71,8.42,13.49,9.34-.98-1.31-2.41-5.3,2.13-16.05Zm2.01-.12v.05s.02,0,.02,0c0,0,0-.03-.02-.04Zm-1.12-21.61c-3.06,0-5.95.72-8.5,2,1.63.56,5.14,3.07,7.6,14.28.29-.1.59-.15.9-.15.16,0,.32,0,.48.04,2.66-12.49,6.58-14.09,7.79-14.28-2.5-1.22-5.3-1.89-8.26-1.89Zm2.19,20.86c-.28.34-.65.62-1.05.79,5.47,9.74,4.77,14.03,3.94,15.68,5.56-1.54,10.1-5.54,12.36-10.75-1.28.68-5.41,1.58-15.25-5.71Zm11.8-14.72c0,1.58-1.21,5.63-11.54,11.36.24.37.38.81.41,1.27,11.51-.97,14.94,1.67,15.94,3.07.13-.93.21-1.87.21-2.84,0-4.96-1.9-9.48-5.02-12.86Zm-11.8,14.72c-.28.34-.65.62-1.05.79,5.47,9.74,4.77,14.03,3.94,15.68,5.56-1.54,10.1-5.54,12.36-10.75-1.28.68-5.41,1.58-15.25-5.71Zm-2.19-20.86c-3.06,0-5.95.72-8.5,2,1.63.56,5.14,3.07,7.6,14.28.29-.1.59-.15.9-.15.16,0,.32,0,.48.04,2.66-12.49,6.58-14.09,7.79-14.28-2.5-1.22-5.3-1.89-8.26-1.89Zm1.12,21.61v.05s.02,0,.02,0c0,0,0-.03-.02-.04Zm-2.01.12c-.44-.13-.83-.37-1.15-.69-8.54,7.95-12.87,7.89-14.47,7.4,2.8,4.89,7.71,8.42,13.49,9.34-.98-1.31-2.41-5.3,2.13-16.05Zm-1.79-3.78c-11.56-5.19-12.39-9.34-12.32-10.6-2.53,3.22-4.02,7.26-4.02,11.66,0,1.65.21,3.25.61,4.77.86-1.48,4.05-4.41,15.54-4.46,0-.1-.02-.21-.02-.31,0-.37.07-.73.21-1.05Zm16.67-11.81c0,1.58-1.21,5.63-11.54,11.36.24.37.38.81.41,1.27,11.51-.97,14.94,1.67,15.94,3.07.13-.93.21-1.87.21-2.84,0-4.96-1.9-9.48-5.02-12.86Zm-16.67,11.81c-11.56-5.19-12.39-9.34-12.32-10.6-2.53,3.22-4.02,7.26-4.02,11.66,0,1.65.21,3.25.61,4.77.86-1.48,4.05-4.41,15.54-4.46,0-.1-.02-.21-.02-.31,0-.37.07-.73.21-1.05Zm1.79,3.78c-.44-.13-.83-.37-1.15-.69-8.54,7.95-12.87,7.89-14.47,7.4,2.8,4.89,7.71,8.42,13.49,9.34-.98-1.31-2.41-5.3,2.13-16.05Zm2.01-.12v.05s.02,0,.02,0c0,0,0-.03-.02-.04Zm-1.12-21.61c-3.06,0-5.95.72-8.5,2,1.63.56,5.14,3.07,7.6,14.28.29-.1.59-.15.9-.15.16,0,.32,0,.48.04,2.66-12.49,6.58-14.09,7.79-14.28-2.5-1.22-5.3-1.89-8.26-1.89Zm2.19,20.86c-.28.34-.65.62-1.05.79,5.47,9.74,4.77,14.03,3.94,15.68,5.56-1.54,10.1-5.54,12.36-10.75-1.28.68-5.41,1.58-15.25-5.71Zm11.8-14.72c0,1.58-1.21,5.63-11.54,11.36.24.37.38.81.41,1.27,11.51-.97,14.94,1.67,15.94,3.07.13-.93.21-1.87.21-2.84,0-4.96-1.9-9.48-5.02-12.86Zm-11.8,14.72c-.28.34-.65.62-1.05.79,5.47,9.74,4.77,14.03,3.94,15.68,5.56-1.54,10.1-5.54,12.36-10.75-1.28.68-5.41,1.58-15.25-5.71Zm-2.19-20.86c-3.06,0-5.95.72-8.5,2,1.63.56,5.14,3.07,7.6,14.28.29-.1.59-.15.9-.15.16,0,.32,0,.48.04,2.66-12.49,6.58-14.09,7.79-14.28-2.5-1.22-5.3-1.89-8.26-1.89Zm1.12,21.61v.05s.02,0,.02,0c0,0,0-.03-.02-.04Zm-2.01.12c-.44-.13-.83-.37-1.15-.69-8.54,7.95-12.87,7.89-14.47,7.4,2.8,4.89,7.71,8.42,13.49,9.34-.98-1.31-2.41-5.3,2.13-16.05Zm-1.79-3.78c-11.56-5.19-12.39-9.34-12.32-10.6-2.53,3.22-4.02,7.26-4.02,11.66,0,1.65.21,3.25.61,4.77.86-1.48,4.05-4.41,15.54-4.46,0-.1-.02-.21-.02-.31,0-.37.07-.73.21-1.05Zm16.67-11.81c0,1.58-1.21,5.63-11.54,11.36.24.37.38.81.41,1.27,11.51-.97,14.94,1.67,15.94,3.07.13-.93.21-1.87.21-2.84,0-4.96-1.9-9.48-5.02-12.86Zm-16.67,11.81c-11.56-5.19-12.39-9.34-12.32-10.6-2.53,3.22-4.02,7.26-4.02,11.66,0,1.65.21,3.25.61,4.77.86-1.48,4.05-4.41,15.54-4.46,0-.1-.02-.21-.02-.31,0-.37.07-.73.21-1.05Zm1.79,3.78c-.44-.13-.83-.37-1.15-.69-8.54,7.95-12.87,7.89-14.47,7.4,2.8,4.89,7.71,8.42,13.49,9.34-.98-1.31-2.41-5.3,2.13-16.05Zm2.01-.12v.05s.02,0,.02,0c0,0,0-.03-.02-.04Zm-1.12-21.61c-3.06,0-5.95.72-8.5,2,1.63.56,5.14,3.07,7.6,14.28.29-.1.59-.15.9-.15.16,0,.32,0,.48.04,2.66-12.49,6.58-14.09,7.79-14.28-2.5-1.22-5.3-1.89-8.26-1.89Zm2.19,20.86c-.28.34-.65.62-1.05.79,5.47,9.74,4.77,14.03,3.94,15.68,5.56-1.54,10.1-5.54,12.36-10.75-1.28.68-5.41,1.58-15.25-5.71Zm11.8-14.72c0,1.58-1.21,5.63-11.54,11.36.24.37.38.81.41,1.27,11.51-.97,14.94,1.67,15.94,3.07.13-.93.21-1.87.21-2.84,0-4.96-1.9-9.48-5.02-12.86Zm-11.8,14.72c-.28.34-.65.62-1.05.79,5.47,9.74,4.77,14.03,3.94,15.68,5.56-1.54,10.1-5.54,12.36-10.75-1.28.68-5.41,1.58-15.25-5.71Zm-2.19-20.86c-3.06,0-5.95.72-8.5,2,1.63.56,5.14,3.07,7.6,14.28.29-.1.59-.15.9-.15.16,0,.32,0,.48.04,2.66-12.49,6.58-14.09,7.79-14.28-2.5-1.22-5.3-1.89-8.26-1.89Zm1.12,21.61v.05s.02,0,.02,0c0,0,0-.03-.02-.04Zm-2.01.12c-.44-.13-.83-.37-1.15-.69-8.54,7.95-12.87,7.89-14.47,7.4,2.8,4.89,7.71,8.42,13.49,9.34-.98-1.31-2.41-5.3,2.13-16.05Zm-1.79-3.78c-11.56-5.19-12.39-9.34-12.32-10.6-2.53,3.22-4.02,7.26-4.02,11.66,0,1.65.21,3.25.61,4.77.86-1.48,4.05-4.41,15.54-4.46,0-.1-.02-.21-.02-.31,0-.37.07-.73.21-1.05Zm16.67-11.81c0,1.58-1.21,5.63-11.54,11.36.24.37.38.81.41,1.27,11.51-.97,14.94,1.67,15.94,3.07.13-.93.21-1.87.21-2.84,0-4.96-1.9-9.48-5.02-12.86Zm-16.67,11.81c-11.56-5.19-12.39-9.34-12.32-10.6-2.53,3.22-4.02,7.26-4.02,11.66,0,1.65.21,3.25.61,4.77.86-1.48,4.05-4.41,15.54-4.46,0-.1-.02-.21-.02-.31,0-.37.07-.73.21-1.05Zm1.79,3.78c-.44-.13-.83-.37-1.15-.69-8.54,7.95-12.87,7.89-14.47,7.4,2.8,4.89,7.71,8.42,13.49,9.34-.98-1.31-2.41-5.3,2.13-16.05Zm2.01-.12v.05s.02,0,.02,0c0,0,0-.03-.02-.04Zm-1.12-21.61c-3.06,0-5.95.72-8.5,2,1.63.56,5.14,3.07,7.6,14.28.29-.1.59-.15.9-.15.16,0,.32,0,.48.04,2.66-12.49,6.58-14.09,7.79-14.28-2.5-1.22-5.3-1.89-8.26-1.89Zm2.19,20.86c-.28.34-.65.62-1.05.79,5.47,9.74,4.77,14.03,3.94,15.68,5.56-1.54,10.1-5.54,12.36-10.75-1.28.68-5.41,1.58-15.25-5.71Zm11.8-14.72c0,1.58-1.21,5.63-11.54,11.36.24.37.38.81.41,1.27,11.51-.97,14.94,1.67,15.94,3.07.13-.93.21-1.87.21-2.84,0-4.96-1.9-9.48-5.02-12.86Zm-11.8,14.72c-.28.34-.65.62-1.05.79,5.47,9.74,4.77,14.03,3.94,15.68,5.56-1.54,10.1-5.54,12.36-10.75-1.28.68-5.41,1.58-15.25-5.71Zm-2.19-20.86c-3.06,0-5.95.72-8.5,2,1.63.56,5.14,3.07,7.6,14.28.29-.1.59-.15.9-.15.16,0,.32,0,.48.04,2.66-12.49,6.58-14.09,7.79-14.28-2.5-1.22-5.3-1.89-8.26-1.89Zm1.12,21.61v.05s.02,0,.02,0c0,0,0-.03-.02-.04Zm-2.01.12c-.44-.13-.83-.37-1.15-.69-8.54,7.95-12.87,7.89-14.47,7.4,2.8,4.89,7.71,8.42,13.49,9.34-.98-1.31-2.41-5.3,2.13-16.05Zm-1.79-3.78c-11.56-5.19-12.39-9.34-12.32-10.6-2.53,3.22-4.02,7.26-4.02,11.66,0,1.65.21,3.25.61,4.77.86-1.48,4.05-4.41,15.54-4.46,0-.1-.02-.21-.02-.31,0-.37.07-.73.21-1.05Zm16.67-11.81c0,1.58-1.21,5.63-11.54,11.36.24.37.38.81.41,1.27,11.51-.97,14.94,1.67,15.94,3.07.13-.93.21-1.87.21-2.84,0-4.96-1.9-9.48-5.02-12.86Zm-16.67,11.81c-11.56-5.19-12.39-9.34-12.32-10.6-2.53,3.22-4.02,7.26-4.02,11.66,0,1.65.21,3.25.61,4.77.86-1.48,4.05-4.41,15.54-4.46,0-.1-.02-.21-.02-.31,0-.37.07-.73.21-1.05Zm1.79,3.78c-.44-.13-.83-.37-1.15-.69-8.54,7.95-12.87,7.89-14.47,7.4,2.8,4.89,7.71,8.42,13.49,9.34-.98-1.31-2.41-5.3,2.13-16.05Zm2.01-.12v.05s.02,0,.02,0c0,0,0-.03-.02-.04Zm-1.12-21.61c-3.06,0-5.95.72-8.5,2,1.63.56,5.14,3.07,7.6,14.28.29-.1.59-.15.9-.15.16,0,.32,0,.48.04,2.66-12.49,6.58-14.09,7.79-14.28-2.5-1.22-5.3-1.89-8.26-1.89Zm2.19,20.86c-.28.34-.65.62-1.05.79,5.47,9.74,4.77,14.03,3.94,15.68,5.56-1.54,10.1-5.54,12.36-10.75-1.28.68-5.41,1.58-15.25-5.71Zm11.8-14.72c0,1.58-1.21,5.63-11.54,11.36.24.37.38.81.41,1.27,11.51-.97,14.94,1.67,15.94,3.07.13-.93.21-1.87.21-2.84,0-4.96-1.9-9.48-5.02-12.86Zm-11.8,14.72c-.28.34-.65.62-1.05.79,5.47,9.74,4.77,14.03,3.94,15.68,5.56-1.54,10.1-5.54,12.36-10.75-1.28.68-5.41,1.58-15.25-5.71Zm6.07-18.97c-2.5-1.22-5.3-1.89-8.26-1.89s-5.95.72-8.5,2c1.63.56,5.14,3.07,7.6,14.28.29-.1.59-.15.9-.15.16,0,.32,0,.48.04,2.66-12.49,6.58-14.09,7.79-14.28Zm-7.13,19.77h0s0-.04-.02-.05v.05Zm-3.17-.62c-8.54,7.95-12.87,7.89-14.47,7.4,2.8,4.89,7.71,8.42,13.49,9.34-.98-1.31-2.41-5.3,2.13-16.05-.44-.13-.83-.37-1.15-.69Zm-.84-2.03c0-.37.07-.73.21-1.05-11.56-5.19-12.39-9.34-12.32-10.6-2.53,3.22-4.02,7.26-4.02,11.66,0,1.65.21,3.25.61,4.77.86-1.48,4.05-4.41,15.54-4.46,0-.1-.02-.21-.02-.31Zm16.88-12.86c0,1.58-1.21,5.63-11.54,11.36.24.37.38.81.41,1.27,11.51-.97,14.94,1.67,15.94,3.07.13-.93.21-1.87.21-2.84,0-4.96-1.9-9.48-5.02-12.86Zm-13.99-12.07c-13.77,0-24.94,11.16-24.94,24.94s11.16,24.94,24.94,24.94,24.94-11.16,24.94-24.94-11.17-24.94-24.94-24.94Zm0,45.1c-11.13,0-20.17-9.02-20.17-20.16s9.03-20.17,20.17-20.17,20.16,9.03,20.16,20.17-9.02,20.16-20.16,20.16Zm2.19-18.31c-.28.34-.65.62-1.05.79,5.47,9.74,4.77,14.03,3.94,15.68,5.56-1.54,10.1-5.54,12.36-10.75-1.28.68-5.41,1.58-15.25-5.71Zm6.07-18.97c-2.5-1.22-5.3-1.89-8.26-1.89s-5.95.72-8.5,2c1.63.56,5.14,3.07,7.6,14.28.29-.1.59-.15.9-.15.16,0,.32,0,.48.04,2.66-12.49,6.58-14.09,7.79-14.28Zm-7.13,19.77h0s0-.04-.02-.05v.05Zm-3.17-.62c-8.54,7.95-12.87,7.89-14.47,7.4,2.8,4.89,7.71,8.42,13.49,9.34-.98-1.31-2.41-5.3,2.13-16.05-.44-.13-.83-.37-1.15-.69Zm-.84-2.03c0-.37.07-.73.21-1.05-11.56-5.19-12.39-9.34-12.32-10.6-2.53,3.22-4.02,7.26-4.02,11.66,0,1.65.21,3.25.61,4.77.86-1.48,4.05-4.41,15.54-4.46,0-.1-.02-.21-.02-.31Zm16.88-12.86c0,1.58-1.21,5.63-11.54,11.36.24.37.38.81.41,1.27,11.51-.97,14.94,1.67,15.94,3.07.13-.93.21-1.87.21-2.84,0-4.96-1.9-9.48-5.02-12.86Zm-16.67,11.81c-11.56-5.19-12.39-9.34-12.32-10.6-2.53,3.22-4.02,7.26-4.02,11.66,0,1.65.21,3.25.61,4.77.86-1.48,4.05-4.41,15.54-4.46,0-.1-.02-.21-.02-.31,0-.37.07-.73.21-1.05Zm1.79,3.78c-.44-.13-.83-.37-1.15-.69-8.54,7.95-12.87,7.89-14.47,7.4,2.8,4.89,7.71,8.42,13.49,9.34-.98-1.31-2.41-5.3,2.13-16.05Zm2.01-.12v.05s.02,0,.02,0c0,0,0-.03-.02-.04Zm-1.12-21.61c-3.06,0-5.95.72-8.5,2,1.63.56,5.14,3.07,7.6,14.28.29-.1.59-.15.9-.15.16,0,.32,0,.48.04,2.66-12.49,6.58-14.09,7.79-14.28-2.5-1.22-5.3-1.89-8.26-1.89Zm2.19,20.86c-.28.34-.65.62-1.05.79,5.47,9.74,4.77,14.03,3.94,15.68,5.56-1.54,10.1-5.54,12.36-10.75-1.28.68-5.41,1.58-15.25-5.71Zm11.8-14.72c0,1.58-1.21,5.63-11.54,11.36.24.37.38.81.41,1.27,11.51-.97,14.94,1.67,15.94,3.07.13-.93.21-1.87.21-2.84,0-4.96-1.9-9.48-5.02-12.86Zm-11.8,14.72c-.28.34-.65.62-1.05.79,5.47,9.74,4.77,14.03,3.94,15.68,5.56-1.54,10.1-5.54,12.36-10.75-1.28.68-5.41,1.58-15.25-5.71Zm-2.19-20.86c-3.06,0-5.95.72-8.5,2,1.63.56,5.14,3.07,7.6,14.28.29-.1.59-.15.9-.15.16,0,.32,0,.48.04,2.66-12.49,6.58-14.09,7.79-14.28-2.5-1.22-5.3-1.89-8.26-1.89Zm1.12,21.61v.05s.02,0,.02,0c0,0,0-.03-.02-.04Zm-2.01.12c-.44-.13-.83-.37-1.15-.69-8.54,7.95-12.87,7.89-14.47,7.4,2.8,4.89,7.71,8.42,13.49,9.34-.98-1.31-2.41-5.3,2.13-16.05Zm-1.79-3.78c-11.56-5.19-12.39-9.34-12.32-10.6-2.53,3.22-4.02,7.26-4.02,11.66,0,1.65.21,3.25.61,4.77.86-1.48,4.05-4.41,15.54-4.46,0-.1-.02-.21-.02-.31,0-.37.07-.73.21-1.05Zm16.67-11.81c0,1.58-1.21,5.63-11.54,11.36.24.37.38.81.41,1.27,11.51-.97,14.94,1.67,15.94,3.07.13-.93.21-1.87.21-2.84,0-4.96-1.9-9.48-5.02-12.86Zm-16.67,11.81c-11.56-5.19-12.39-9.34-12.32-10.6-2.53,3.22-4.02,7.26-4.02,11.66,0,1.65.21,3.25.61,4.77.86-1.48,4.05-4.41,15.54-4.46,0-.1-.02-.21-.02-.31,0-.37.07-.73.21-1.05Zm1.79,3.78c-.44-.13-.83-.37-1.15-.69-8.54,7.95-12.87,7.89-14.47,7.4,2.8,4.89,7.71,8.42,13.49,9.34-.98-1.31-2.41-5.3,2.13-16.05Zm2.01-.12v.05s.02,0,.02,0c0,0,0-.03-.02-.04Zm-1.12-21.61c-3.06,0-5.95.72-8.5,2,1.63.56,5.14,3.07,7.6,14.28.29-.1.59-.15.9-.15.16,0,.32,0,.48.04,2.66-12.49,6.58-14.09,7.79-14.28-2.5-1.22-5.3-1.89-8.26-1.89Zm2.19,20.86c-.28.34-.65.62-1.05.79,5.47,9.74,4.77,14.03,3.94,15.68,5.56-1.54,10.1-5.54,12.36-10.75-1.28.68-5.41,1.58-15.25-5.71Zm11.8-14.72c0,1.58-1.21,5.63-11.54,11.36.24.37.38.81.41,1.27,11.51-.97,14.94,1.67,15.94,3.07.13-.93.21-1.87.21-2.84,0-4.96-1.9-9.48-5.02-12.86Zm-11.8,14.72c-.28.34-.65.62-1.05.79,5.47,9.74,4.77,14.03,3.94,15.68,5.56-1.54,10.1-5.54,12.36-10.75-1.28.68-5.41,1.58-15.25-5.71Zm-2.19-20.86c-3.06,0-5.95.72-8.5,2,1.63.56,5.14,3.07,7.6,14.28.29-.1.59-.15.9-.15.16,0,.32,0,.48.04,2.66-12.49,6.58-14.09,7.79-14.28-2.5-1.22-5.3-1.89-8.26-1.89Zm1.12,21.61v.05s.02,0,.02,0c0,0,0-.03-.02-.04Zm-2.01.12c-.44-.13-.83-.37-1.15-.69-8.54,7.95-12.87,7.89-14.47,7.4,2.8,4.89,7.71,8.42,13.49,9.34-.98-1.31-2.41-5.3,2.13-16.05Zm-1.79-3.78c-11.56-5.19-12.39-9.34-12.32-10.6-2.53,3.22-4.02,7.26-4.02,11.66,0,1.65.21,3.25.61,4.77.86-1.48,4.05-4.41,15.54-4.46,0-.1-.02-.21-.02-.31,0-.37.07-.73.21-1.05Zm16.67-11.81c0,1.58-1.21,5.63-11.54,11.36.24.37.38.81.41,1.27,11.51-.97,14.94,1.67,15.94,3.07.13-.93.21-1.87.21-2.84,0-4.96-1.9-9.48-5.02-12.86Zm-16.67,11.81c-11.56-5.19-12.39-9.34-12.32-10.6-2.53,3.22-4.02,7.26-4.02,11.66,0,1.65.21,3.25.61,4.77.86-1.48,4.05-4.41,15.54-4.46,0-.1-.02-.21-.02-.31,0-.37.07-.73.21-1.05Zm1.79,3.78c-.44-.13-.83-.37-1.15-.69-8.54,7.95-12.87,7.89-14.47,7.4,2.8,4.89,7.71,8.42,13.49,9.34-.98-1.31-2.41-5.3,2.13-16.05Zm2.01-.12v.05s.02,0,.02,0c0,0,0-.03-.02-.04Zm-1.12-21.61c-3.06,0-5.95.72-8.5,2,1.63.56,5.14,3.07,7.6,14.28.29-.1.59-.15.9-.15.16,0,.32,0,.48.04,2.66-12.49,6.58-14.09,7.79-14.28-2.5-1.22-5.3-1.89-8.26-1.89Zm2.19,20.86c-.28.34-.65.62-1.05.79,5.47,9.74,4.77,14.03,3.94,15.68,5.56-1.54,10.1-5.54,12.36-10.75-1.28.68-5.41,1.58-15.25-5.71Zm11.8-14.72c0,1.58-1.21,5.63-11.54,11.36.24.37.38.81.41,1.27,11.51-.97,14.94,1.67,15.94,3.07.13-.93.21-1.87.21-2.84,0-4.96-1.9-9.48-5.02-12.86Zm-11.8,14.72c-.28.34-.65.62-1.05.79,5.47,9.74,4.77,14.03,3.94,15.68,5.56-1.54,10.1-5.54,12.36-10.75-1.28.68-5.41,1.58-15.25-5.71Zm-2.19-20.86c-3.06,0-5.95.72-8.5,2,1.63.56,5.14,3.07,7.6,14.28.29-.1.59-.15.9-.15.16,0,.32,0,.48.04,2.66-12.49,6.58-14.09,7.79-14.28-2.5-1.22-5.3-1.89-8.26-1.89Zm1.12,21.61v.05s.02,0,.02,0c0,0,0-.03-.02-.04Zm-2.01.12c-.44-.13-.83-.37-1.15-.69-8.54,7.95-12.87,7.89-14.47,7.4,2.8,4.89,7.71,8.42,13.49,9.34-.98-1.31-2.41-5.3,2.13-16.05Zm-1.79-3.78c-11.56-5.19-12.39-9.34-12.32-10.6-2.53,3.22-4.02,7.26-4.02,11.66,0,1.65.21,3.25.61,4.77.86-1.48,4.05-4.41,15.54-4.46,0-.1-.02-.21-.02-.31,0-.37.07-.73.21-1.05Zm16.67-11.81c0,1.58-1.21,5.63-11.54,11.36.24.37.38.81.41,1.27,11.51-.97,14.94,1.67,15.94,3.07.13-.93.21-1.87.21-2.84,0-4.96-1.9-9.48-5.02-12.86Zm-16.67,11.81c-11.56-5.19-12.39-9.34-12.32-10.6-2.53,3.22-4.02,7.26-4.02,11.66,0,1.65.21,3.25.61,4.77.86-1.48,4.05-4.41,15.54-4.46,0-.1-.02-.21-.02-.31,0-.37.07-.73.21-1.05Zm1.79,3.78c-.44-.13-.83-.37-1.15-.69-8.54,7.95-12.87,7.89-14.47,7.4,2.8,4.89,7.71,8.42,13.49,9.34-.98-1.31-2.41-5.3,2.13-16.05Zm2.01-.12v.05s.02,0,.02,0c0,0,0-.03-.02-.04Zm-1.12-21.61c-3.06,0-5.95.72-8.5,2,1.63.56,5.14,3.07,7.6,14.28.29-.1.59-.15.9-.15.16,0,.32,0,.48.04,2.66-12.49,6.58-14.09,7.79-14.28-2.5-1.22-5.3-1.89-8.26-1.89Zm2.19,20.86c-.28.34-.65.62-1.05.79,5.47,9.74,4.77,14.03,3.94,15.68,5.56-1.54,10.1-5.54,12.36-10.75-1.28.68-5.41,1.58-15.25-5.71Zm11.8-14.72c0,1.58-1.21,5.63-11.54,11.36.24.37.38.81.41,1.27,11.51-.97,14.94,1.67,15.94,3.07.13-.93.21-1.87.21-2.84,0-4.96-1.9-9.48-5.02-12.86Zm-11.8,14.72c-.28.34-.65.62-1.05.79,5.47,9.74,4.77,14.03,3.94,15.68,5.56-1.54,10.1-5.54,12.36-10.75-1.28.68-5.41,1.58-15.25-5.71Zm-2.19-20.86c-3.06,0-5.95.72-8.5,2,1.63.56,5.14,3.07,7.6,14.28.29-.1.59-.15.9-.15.16,0,.32,0,.48.04,2.66-12.49,6.58-14.09,7.79-14.28-2.5-1.22-5.3-1.89-8.26-1.89Zm1.12,21.61v.05s.02,0,.02,0c0,0,0-.03-.02-.04Zm-2.01.12c-.44-.13-.83-.37-1.15-.69-8.54,7.95-12.87,7.89-14.47,7.4,2.8,4.89,7.71,8.42,13.49,9.34-.98-1.31-2.41-5.3,2.13-16.05Zm-1.79-3.78c-11.56-5.19-12.39-9.34-12.32-10.6-2.53,3.22-4.02,7.26-4.02,11.66,0,1.65.21,3.25.61,4.77.86-1.48,4.05-4.41,15.54-4.46,0-.1-.02-.21-.02-.31,0-.37.07-.73.21-1.05Zm16.67-11.81c0,1.58-1.21,5.63-11.54,11.36.24.37.38.81.41,1.27,11.51-.97,14.94,1.67,15.94,3.07.13-.93.21-1.87.21-2.84,0-4.96-1.9-9.48-5.02-12.86Zm-16.67,11.81c-11.56-5.19-12.39-9.34-12.32-10.6-2.53,3.22-4.02,7.26-4.02,11.66,0,1.65.21,3.25.61,4.77.86-1.48,4.05-4.41,15.54-4.46,0-.1-.02-.21-.02-.31,0-.37.07-.73.21-1.05Zm1.79,3.78c-.44-.13-.83-.37-1.15-.69-8.54,7.95-12.87,7.89-14.47,7.4,2.8,4.89,7.71,8.42,13.49,9.34-.98-1.31-2.41-5.3,2.13-16.05Zm2.01-.12v.05s.02,0,.02,0c0,0,0-.03-.02-.04Zm-1.12-21.61c-3.06,0-5.95.72-8.5,2,1.63.56,5.14,3.07,7.6,14.28.29-.1.59-.15.9-.15.16,0,.32,0,.48.04,2.66-12.49,6.58-14.09,7.79-14.28-2.5-1.22-5.3-1.89-8.26-1.89Zm2.19,20.86c-.28.34-.65.62-1.05.79,5.47,9.74,4.77,14.03,3.94,15.68,5.56-1.54,10.1-5.54,12.36-10.75-1.28.68-5.41,1.58-15.25-5.71Zm11.8-14.72c0,1.58-1.21,5.63-11.54,11.36.24.37.38.81.41,1.27,11.51-.97,14.94,1.67,15.94,3.07.13-.93.21-1.87.21-2.84,0-4.96-1.9-9.48-5.02-12.86Zm-11.8,14.72c-.28.34-.65.62-1.05.79,5.47,9.74,4.77,14.03,3.94,15.68,5.56-1.54,10.1-5.54,12.36-10.75-1.28.68-5.41,1.58-15.25-5.71Zm-2.19-20.86c-3.06,0-5.95.72-8.5,2,1.63.56,5.14,3.07,7.6,14.28.29-.1.59-.15.9-.15.16,0,.32,0,.48.04,2.66-12.49,6.58-14.09,7.79-14.28-2.5-1.22-5.3-1.89-8.26-1.89Zm1.12,21.61v.05s.02,0,.02,0c0,0,0-.03-.02-.04Zm-2.01.12c-.44-.13-.83-.37-1.15-.69-8.54,7.95-12.87,7.89-14.47,7.4,2.8,4.89,7.71,8.42,13.49,9.34-.98-1.31-2.41-5.3,2.13-16.05Zm-1.79-3.78c-11.56-5.19-12.39-9.34-12.32-10.6-2.53,3.22-4.02,7.26-4.02,11.66,0,1.65.21,3.25.61,4.77.86-1.48,4.05-4.41,15.54-4.46,0-.1-.02-.21-.02-.31,0-.37.07-.73.21-1.05Zm16.67-11.81c0,1.58-1.21,5.63-11.54,11.36.24.37.38.81.41,1.27,11.51-.97,14.94,1.67,15.94,3.07.13-.93.21-1.87.21-2.84,0-4.96-1.9-9.48-5.02-12.86Zm-16.67,11.81c-11.56-5.19-12.39-9.34-12.32-10.6-2.53,3.22-4.02,7.26-4.02,11.66,0,1.65.21,3.25.61,4.77.86-1.48,4.05-4.41,15.54-4.46,0-.1-.02-.21-.02-.31,0-.37.07-.73.21-1.05Zm1.79,3.78c-.44-.13-.83-.37-1.15-.69-8.54,7.95-12.87,7.89-14.47,7.4,2.8,4.89,7.71,8.42,13.49,9.34-.98-1.31-2.41-5.3,2.13-16.05Zm2.01-.12v.05s.02,0,.02,0c0,0,0-.03-.02-.04Zm-1.12-21.61c-3.06,0-5.95.72-8.5,2,1.63.56,5.14,3.07,7.6,14.28.29-.1.59-.15.9-.15.16,0,.32,0,.48.04,2.66-12.49,6.58-14.09,7.79-14.28-2.5-1.22-5.3-1.89-8.26-1.89Zm2.19,20.86c-.28.34-.65.62-1.05.79,5.47,9.74,4.77,14.03,3.94,15.68,5.56-1.54,10.1-5.54,12.36-10.75-1.28.68-5.41,1.58-15.25-5.71Zm11.8-14.72c0,1.58-1.21,5.63-11.54,11.36.24.37.38.81.41,1.27,11.51-.97,14.94,1.67,15.94,3.07.13-.93.21-1.87.21-2.84,0-4.96-1.9-9.48-5.02-12.86Zm-11.8,14.72c-.28.34-.65.62-1.05.79,5.47,9.74,4.77,14.03,3.94,15.68,5.56-1.54,10.1-5.54,12.36-10.75-1.28.68-5.41,1.58-15.25-5.71Zm-2.19-20.86c-3.06,0-5.95.72-8.5,2,1.63.56,5.14,3.07,7.6,14.28.29-.1.59-.15.9-.15.16,0,.32,0,.48.04,2.66-12.49,6.58-14.09,7.79-14.28-2.5-1.22-5.3-1.89-8.26-1.89Zm1.12,21.61v.05s.02,0,.02,0c0,0,0-.03-.02-.04Zm-2.01.12c-.44-.13-.83-.37-1.15-.69-8.54,7.95-12.87,7.89-14.47,7.4,2.8,4.89,7.71,8.42,13.49,9.34-.98-1.31-2.41-5.3,2.13-16.05Zm-1.79-3.78c-11.56-5.19-12.39-9.34-12.32-10.6-2.53,3.22-4.02,7.26-4.02,11.66,0,1.65.21,3.25.61,4.77.86-1.48,4.05-4.41,15.54-4.46,0-.1-.02-.21-.02-.31,0-.37.07-.73.21-1.05Zm3.8,3.66v.05s.02,0,.02,0c0,0,0-.03-.02-.04Zm0,0v.05s.02,0,.02,0c0,0,0-.03-.02-.04Zm0,0v.05s.02,0,.02,0c0,0,0-.03-.02-.04Zm0,0v.05s.02,0,.02,0c0,0,0-.03-.02-.04Zm0,0v.05s.02,0,.02,0c0,0,0-.03-.02-.04Zm0,0v.05s.02,0,.02,0c0,0,0-.03-.02-.04Zm0,0v.05s.02,0,.02,0c0,0,0-.03-.02-.04Zm0,0v.05s.02,0,.02,0c0,0,0-.03-.02-.04Zm0,0v.05s.02,0,.02,0c0,0,0-.03-.02-.04Zm0,0v.05s.02,0,.02,0c0,0,0-.03-.02-.04Z"/>
      <path class="cls-1" d="m248.54,67.5c0,.1,0,.21.02.31-11.49.05-14.68,2.97-15.54,4.46-.4-1.52-.61-3.12-.61-4.77,0-4.4,1.49-8.44,4.02-11.66-.07,1.26.76,5.41,12.32,10.6-.14.32-.21.68-.21,1.05Z"/>
      <path class="cls-1" d="m248.41,86.27c-5.78-.92-10.69-4.45-13.49-9.34,1.6.49,5.93.55,14.47-7.4.32.32.71.56,1.15.69-4.54,10.74-3.11,14.73-2.13,16.05Z"/>
      <path class="cls-1" d="m252.57,70.14h0s0-.04,0-.04c0,0,.02.03.02.04Z"/>
      <path class="cls-1" d="m259.69,50.38c-1.21.19-5.13,1.79-7.79,14.28-.15-.03-.31-.04-.48-.04-.31,0-.62.05-.9.15-2.46-11.21-5.97-13.72-7.6-14.28,2.55-1.28,5.44-2,8.5-2s5.77.67,8.26,1.89Z"/>
      <path class="cls-1" d="m268.87,75.06c-2.26,5.22-6.8,9.22-12.36,10.75.83-1.64,1.53-5.94-3.94-15.68.41-.17.77-.45,1.05-.79,9.83,7.29,13.97,6.39,15.25,5.71Z"/>
      <path class="cls-1" d="m270.44,67.5c0,.97-.08,1.91-.21,2.84-1-1.4-4.43-4.04-15.94-3.07-.03-.47-.17-.9-.41-1.27,10.34-5.73,11.54-9.78,11.54-11.36,3.12,3.38,5.02,7.9,5.02,12.86Z"/>
      <path class="cls-1" d="m252.55,70.1v.05s.02,0,.02,0c0,0,0-.03-.02-.04Zm0,0v.05s.02,0,.02,0c0,0,0-.03-.02-.04Zm0,0v.05s.02,0,.02,0c0,0,0-.03-.02-.04Zm0,0v.05s.02,0,.02,0c0,0,0-.03-.02-.04Zm0,0v.05s.02,0,.02,0c0,0,0-.03-.02-.04Zm0,0v.05s.02,0,.02,0c0,0,0-.03-.02-.04Zm0,0v.05s.02,0,.02,0c0,0,0-.03-.02-.04Zm0,0v.05s.02,0,.02,0c0,0,0-.03-.02-.04Zm0,0v.05s.02,0,.02,0c0,0,0-.03-.02-.04Zm0,0v.05s.02,0,.02,0c0,0,0-.03-.02-.04Zm12.87-15.47c0,1.58-1.21,5.63-11.54,11.36.24.37.38.81.41,1.27,11.51-.97,14.94,1.67,15.94,3.07.13-.93.21-1.87.21-2.84,0-4.96-1.9-9.48-5.02-12.86Zm-11.8,14.72c-.28.34-.65.62-1.05.79,5.47,9.74,4.77,14.03,3.94,15.68,5.56-1.54,10.1-5.54,12.36-10.75-1.28.68-5.41,1.58-15.25-5.71Zm-2.19-20.86c-3.06,0-5.95.72-8.5,2,1.63.56,5.14,3.07,7.6,14.28.29-.1.59-.15.9-.15.16,0,.32,0,.48.04,2.66-12.49,6.58-14.09,7.79-14.28-2.5-1.22-5.3-1.89-8.26-1.89Zm1.12,21.61v.05s.02,0,.02,0c0,0,0-.03-.02-.04Zm-2.01.12c-.44-.13-.83-.37-1.15-.69-8.54,7.95-12.87,7.89-14.47,7.4,2.8,4.89,7.71,8.42,13.49,9.34-.98-1.31-2.41-5.3,2.13-16.05Zm-1.79-3.78c-11.56-5.19-12.39-9.34-12.32-10.6-2.53,3.22-4.02,7.26-4.02,11.66,0,1.65.21,3.25.61,4.77.86-1.48,4.05-4.41,15.54-4.46,0-.1-.02-.21-.02-.31,0-.37.07-.73.21-1.05Zm3.8,3.66v.05s.02,0,.02,0c0,0,0-.03-.02-.04Zm0,0v.05s.02,0,.02,0c0,0,0-.03-.02-.04Zm0,0v.05s.02,0,.02,0c0,0,0-.03-.02-.04Zm0,0v.05s.02,0,.02,0c0,0,0-.03-.02-.04Zm0,0v.05s.02,0,.02,0c0,0,0-.03-.02-.04Zm0,0v.05s.02,0,.02,0c0,0,0-.03-.02-.04Zm0,0v.05s.02,0,.02,0c0,0,0-.03-.02-.04Zm0,0v.05s.02,0,.02,0c0,0,0-.03-.02-.04Zm0,0v.05s.02,0,.02,0c0,0,0-.03-.02-.04Zm0,0v.05s.02,0,.02,0c0,0,0-.03-.02-.04Z"/>
      <path class="cls-1" d="m254.31,67.5c0,.68-.25,1.32-.65,1.82-.02.02-.03.03-.04.04-.28.34-.65.62-1.05.79,0,0,0-.03-.02-.04v.05c-.33.14-.72.23-1.12.23-.3,0-.6-.05-.87-.14-.01,0-.01,0-.02,0-.44-.13-.83-.37-1.15-.69,0,0-.02-.03-.04-.04-.42-.43-.7-1-.78-1.62,0-.02,0-.05,0-.07,0-.1-.02-.21-.02-.31,0-.37.07-.73.21-1.05,0-.03.02-.07.03-.1.32-.73.93-1.3,1.69-1.56.02-.02.04-.02.06-.02.29-.1.59-.15.9-.15.16,0,.32,0,.48.04.03,0,.06,0,.08.02.79.15,1.46.63,1.87,1.28,0,0,.02.02.02.04.24.37.38.81.41,1.27,0,0,0,.03,0,.04h0c0,.08,0,.12,0,.19Z"/>
      <path class="cls-1" d="m252.57,70.14h0s0-.04,0-.04c0,0,.02.03.02.04Z"/>
      <path class="cls-1" d="m252.57,70.14h0s0-.04,0-.04c0,0,.02.03.02.04Z"/>
    </g>
  </g>
</svg>